<svg width="150" height="58" viewBox="0 0 150 58" fill="none" xmlns="http://www.w3.org/2000/svg">
<path d="M129.796 33.8233C123.236 33.4479 116.388 38.0939 116.634 42.0955L123.157 52.9698C125.179 56.2288 128.511 57.7079 132.661 57.7079H149.443L129.796 33.8233Z" fill="white"/>
<path d="M116.634 42.0955L110.769 32.3668C110.062 31.2632 109.869 30.2975 109.869 29.1725C109.869 27.9351 110.395 27.2566 112.414 26.1821C114.767 25.052 119.503 24.5606 124.386 24.5606C132.32 24.5606 134.222 27.1151 135.032 29.8716C135.032 29.8716 133.912 29.4249 131.277 29.4249C122.919 29.4249 116.237 33.4954 116.237 39.6585C116.237 40.9518 116.634 42.0955 116.634 42.0955Z" fill="white"/>
<path d="M91.4431 0.707886H99.3322C102.659 0.707886 104.024 2.07327 105.37 3.41287C106.91 4.81772 111.582 11.1613 121.459 23.5424H110.769C106.398 23.5424 105.016 22.7953 103.325 20.2089L91.4431 0.707886Z" fill="white"/>
<path d="M7.64139 17.0905H7.59301L5.13178 24.0446H10.1026L7.64139 17.0905ZM12.0433 29.5234L10.8374 26.1073H4.39698L3.19113 29.5234H0.443115L6.2121 14.3171H9.27337L14.9537 29.5234H12.0433ZM55.0014 13.7079H57.6895V16.2497H55.0014V13.7079ZM55.0325 17.9416H57.6584V29.5234H55.0325V17.9416ZM49.3891 23.8753V29.5234H46.7574V20.9177C46.7574 20.0896 46.6629 18.5151 46.6284 17.9416H48.7521C48.9813 17.9416 49.0493 18.0406 49.0504 18.2652C49.0574 18.6061 49.0781 19.7014 49.0781 19.7014H49.1368C49.3453 19.2004 50.0905 17.7009 52.2753 17.7009C53.0043 17.7009 53.5502 17.9358 53.6401 17.9715C53.6401 18.4702 53.5859 19.5644 53.5606 19.8546C53.5433 20.0435 53.4592 20.1045 53.366 20.1045C53.2773 20.1045 53.2324 20.0861 53.184 20.0666C53.0181 19.9963 52.6369 19.88 52.1106 19.88C50.7066 19.88 49.3891 20.8935 49.3891 23.8753ZM29.9744 29.5234V22.1131C29.9744 20.7783 29.4101 19.7429 28.0476 19.7429C26.5135 19.7429 25.629 21.4221 25.629 23.7739V29.5234H23.0019V22.0901C23.0019 20.8762 22.4952 19.7429 21.0855 19.7429C19.5295 19.7429 18.6588 21.4187 18.6588 23.8569V29.5234H16.0259V21.0881C16.0259 19.9986 15.9292 18.4576 15.8981 17.9416H18.0023C18.2395 17.9416 18.3179 18.0199 18.3225 18.2652C18.3282 18.5727 18.3467 19.7014 18.3467 19.7014H18.4065C18.5666 19.3709 19.4316 17.6998 21.8456 17.6998C24.0949 17.6998 24.9552 19.3133 25.1683 19.8109C25.3756 19.3732 26.3742 17.6998 28.6396 17.6998C30.996 17.6998 32.6038 18.9643 32.6038 21.505V29.5234H29.9744ZM37.2464 22.5405H42.1125C42.2127 20.677 41.236 19.6289 39.7537 19.6289C38.2058 19.6289 37.3201 20.7495 37.2464 22.5405ZM43.7353 26.9803C43.8792 26.9803 43.923 27.1082 43.9345 27.2395C43.9794 27.7335 44.022 28.8519 44.0151 29.1352C43.7352 29.225 42.3221 29.7445 40.424 29.7445C36.7362 29.7445 34.518 27.8349 34.518 23.729C34.518 20.2082 36.408 17.7009 39.8113 17.7009C43.1456 17.7009 44.7361 19.9318 44.7361 22.704C44.7361 23.0299 44.6992 23.5804 44.6405 24.3095H37.2153C37.2153 26.2893 38.4765 27.7083 40.8018 27.7083C42.086 27.7083 43.1087 27.2487 43.513 27.0506C43.5936 27.0114 43.6397 26.9803 43.7353 26.9803ZM76.7114 23.6473H76.2645C72.9614 23.6473 72.3118 24.7955 72.3118 25.9622C72.3118 26.9158 72.9406 27.8188 74.1753 27.8188C75.8153 27.8188 76.7114 26.2352 76.7114 24.5686V23.6473ZM77.3448 29.5234C77.1329 29.5234 76.9567 29.4531 76.9337 29.1456C76.9083 28.7678 76.8565 28.0365 76.8565 28.0365H76.8208C76.6653 28.2495 75.7071 29.7445 73.3011 29.7445C70.9965 29.7445 69.6743 27.9685 69.6743 26.0186C69.6743 23.3155 72.2991 21.9576 76.1931 21.9576H76.7114V21.5327C76.7114 20.3199 75.8488 19.6704 74.2363 19.6704C72.7852 19.6704 71.5805 20.1794 71.1117 20.4178C71.0806 20.4328 70.9954 20.4823 70.9171 20.4823C70.7927 20.4823 70.7224 20.4051 70.7155 20.2681C70.6948 19.8327 70.6499 18.9955 70.643 18.4645C71.1175 18.2837 72.6907 17.6998 74.4218 17.6998C77.8631 17.6998 79.3408 19.2972 79.3408 21.8483V26.3642C79.3408 28.0112 79.494 29.0892 79.5481 29.5234H77.3448ZM68.2589 26.9803C68.328 26.9803 68.4259 27.0264 68.4489 27.2291C68.4996 27.7808 68.5203 28.6837 68.5226 28.967C67.9974 29.2262 66.8595 29.7445 65.4637 29.7445C61.9555 29.7445 59.8041 27.7082 59.8041 23.7244C59.8041 19.9917 61.7171 17.7009 65.4637 17.7009C66.7064 17.7009 67.85 18.134 68.5226 18.4795C68.5226 18.8918 68.4823 19.8258 68.4489 20.2185C68.4328 20.3832 68.3533 20.4627 68.2589 20.4627C68.1541 20.4627 68.1184 20.4351 68.0562 20.4074C67.2097 19.9928 66.4138 19.7924 65.6975 19.7924C63.4643 19.7924 62.5452 21.2539 62.5452 23.7244C62.5452 25.9265 63.28 27.6529 65.6975 27.6529C66.6211 27.6529 67.463 27.3236 67.9848 27.0725C68.1253 27.0069 68.1495 26.9803 68.2589 26.9803ZM88.8114 29.5234V22.044C88.8114 20.6148 88.1595 19.744 86.9387 19.744C85.3205 19.744 84.2448 21.4636 84.2448 23.7878V29.5234H81.6177V21.0155C81.6177 20.0792 81.5325 18.7144 81.491 17.9416H83.5998C83.8406 17.9416 83.9097 18.0418 83.9108 18.256C83.9166 18.5013 83.9361 19.7014 83.9361 19.7014H83.9937C84.3139 19.1555 85.1224 17.6986 87.5457 17.6986C90.0472 17.6986 91.4431 19.4078 91.4431 21.3231V29.5234H88.8114Z" fill="white"/>
<path d="M56.7406 32.709H54.0748V35.2451H56.7406V32.709Z" fill="white"/>
<path d="M56.7098 36.9319H54.1045V48.4872H56.7098V36.9319Z" fill="white"/>
<path d="M37.5342 32.7079H34.8672V35.2451H37.5342V32.7079Z" fill="white"/>
<path d="M37.5033 36.9319H34.898V48.4872H37.5033V36.9319Z" fill="white"/>
<path d="M48.6553 32.7228H51.2606V48.4872H48.6553V32.7228Z" fill="white"/>
<path d="M42.956 48.4872V42.8521C42.956 39.8771 44.2564 38.867 45.6469 38.867C46.1732 38.867 46.5523 38.9831 46.7144 39.052C46.7635 39.0716 46.8046 39.0922 46.8937 39.0922C46.9873 39.0922 47.0695 39.0302 47.0855 38.8406C47.1117 38.5521 47.1631 37.4605 47.1631 36.963C47.0752 36.9274 46.5386 36.6918 45.8136 36.6918C43.649 36.6918 42.9081 38.1879 42.7026 38.6877H42.6432C42.6432 38.6877 42.6249 37.5973 42.6203 37.256C42.6135 37.0308 42.5484 36.9342 42.3212 36.9342H40.2171C40.2491 37.5053 40.3427 39.0762 40.3427 39.9012V48.4872H42.956Z" fill="white"/>
<path d="M66.6846 41.025V48.4872H69.29V40.308C69.29 38.3948 67.9063 36.6907 65.43 36.6907C63.063 36.6907 62.2491 38.102 61.9254 38.6633L61.9113 38.6877H61.8519C61.8519 38.6877 61.8314 37.4927 61.8245 37.2456C61.8223 37.0319 61.7549 36.9342 61.5186 36.9342H59.4247C59.4681 37.703 59.5526 39.0646 59.5526 39.9989V48.4872H62.1591V42.7648C62.1591 40.4482 63.2231 38.7314 64.826 38.7314C66.0385 38.7314 66.6846 39.6001 66.6846 41.025Z" fill="white"/>
<path d="M91.4431 45.2364C91.4431 47.3117 89.8196 48.7079 86.4277 48.7079C84.6387 48.7079 83.3075 48.1046 83.0004 47.9713C83.0004 47.5725 83.0621 46.3752 83.0701 46.2511C83.0723 46.2086 83.0757 45.95 83.2687 45.95C83.3726 45.95 83.4171 45.9891 83.4925 46.0224C83.8635 46.1971 84.7871 46.6935 86.1309 46.6935C87.7692 46.6935 88.7214 46.2488 88.7214 45.349C88.7214 44.6596 88.3035 44.2149 86.8387 43.7254C86.4882 43.6059 85.8888 43.4083 85.5657 43.2979C84.1626 42.8303 82.8874 41.973 82.8874 40.0954C82.8874 38.1591 84.6102 36.6918 87.413 36.6918C89.2477 36.6918 90.3882 37.2813 90.7044 37.4272C90.7044 38.1017 90.6588 38.8038 90.6325 39.191C90.6188 39.3956 90.5172 39.4473 90.435 39.4473C90.3311 39.4473 90.2729 39.4048 90.2078 39.3749L90.1759 39.3594C89.7656 39.1597 88.8006 38.6901 87.6265 38.6901C86.2702 38.6901 85.6171 39.1945 85.6171 39.915C85.6171 40.5975 86.1594 41.0549 87.2052 41.403C87.6059 41.5386 88.0352 41.6835 88.4736 41.8259C90.0012 42.3338 91.4431 43.1933 91.4431 45.2364Z" fill="white"/>
<path fill-rule="evenodd" clip-rule="evenodd" d="M80.3243 45.95C80.4693 45.95 80.5115 46.0776 80.5229 46.2085C80.5675 46.7015 80.6097 47.8161 80.6029 48.1C80.5829 48.1064 80.5572 48.115 80.5259 48.1255C80.1211 48.2612 78.7886 48.7079 77.042 48.7079C73.3874 48.7079 71.1886 46.805 71.1886 42.7085C71.1886 39.1911 73.0632 36.6918 76.4335 36.6918C79.742 36.6918 81.3153 38.9187 81.3153 41.6834C81.3153 42.0086 81.2799 42.5579 81.2228 43.2876H73.8624C73.8624 45.2606 75.1114 46.6763 77.4199 46.6763C78.6917 46.6763 79.7032 46.2178 80.1051 46.0224C80.1183 46.016 80.1306 46.0097 80.1423 46.0037C80.2017 45.9733 80.2471 45.95 80.3243 45.95ZM78.718 41.5225H73.8955C73.9652 39.7334 74.8454 38.6165 76.3798 38.6165C77.8457 38.6165 78.8173 39.6599 78.718 41.5225Z" fill="white"/>
<path fill-rule="evenodd" clip-rule="evenodd" d="M30.9432 48.4872L29.7491 45.079H23.3648L22.1683 48.4872H19.4431L25.1618 33.3169H28.1987L33.8294 48.4872H30.9432ZM26.5307 36.0828H26.5786L29.0229 43.021H24.092L26.5307 36.0828Z" fill="white"/>
</svg>
