<svg width="182" height="25" viewBox="0 0 182 25" fill="none" xmlns="http://www.w3.org/2000/svg">
<path d="M16.9691 0.312073C17.5802 0.516458 18.2257 0.53628 18.8531 0.659292C24.5251 1.77126 29.1015 6.36921 30.1755 12.0847C30.9946 16.4386 30.2605 20.4797 27.7093 24.1519C27.4959 24.4593 27.3241 24.5425 26.9444 24.4033C23.2631 23.0472 19.5709 21.7201 15.886 20.3767C15.5822 20.2663 15.3165 20.279 15.0181 20.3893C11.3314 21.7346 7.64103 23.0653 3.95619 24.416C3.59811 24.5479 3.4246 24.4503 3.22202 24.1646C1.69604 22.0202 0.815424 19.6389 0.518898 17.0316C0.508131 16.9322 0.542433 16.8147 0.426758 16.7496V13.6794C0.627427 13.2689 0.607513 12.8134 0.679833 12.3776C1.64716 6.55549 6.29399 1.78755 12.1053 0.653858C12.702 0.538087 13.3167 0.518268 13.8953 0.312073H16.9691Z" fill="white"/>
<path d="M181.271 22.1466C179.644 22.8228 177.959 23.0036 176.227 22.7034C173.999 22.3165 172.611 20.8339 172.323 18.581C172.258 18.0729 172.228 17.563 172.228 17.0514C172.232 12.6106 172.234 8.1717 172.224 3.73097C172.224 3.41101 172.312 3.26627 172.617 3.16146C173.735 2.77089 174.842 2.34964 176.013 1.91743C176.013 2.34964 176.013 2.73115 176.013 3.11439C176.013 4.64952 176.021 6.18464 176.006 7.71967C176.005 7.99447 176.071 8.07404 176.353 8.07042C177.602 8.05422 178.854 8.07404 180.103 8.05603C180.423 8.0506 180.557 8.10481 180.541 8.46642C180.51 9.17162 180.509 9.88215 180.541 10.5874C180.557 10.949 180.42 11.005 180.103 10.9996C178.868 10.9833 177.633 11.005 176.398 10.9851C176.073 10.9797 176.005 11.0809 176.006 11.3883C176.021 13.1946 176.015 15.0009 176.011 16.8072C176.011 17.3876 176.098 17.9482 176.384 18.4598C176.892 19.3693 177.917 19.7852 179.163 19.5863C179.458 19.5392 179.76 19.4778 180.032 19.3603C180.334 19.2318 180.398 19.3386 180.473 19.6079C180.684 20.3439 180.933 21.0671 181.164 21.7957C181.186 21.8608 181.164 21.9513 181.269 21.9657V22.1466H181.271Z" fill="white"/>
<path d="M72.812 1.92286C72.812 2.74736 72.812 3.52668 72.812 4.30783C72.812 5.45229 72.8175 6.59503 72.8066 7.73959C72.8048 7.98542 72.8573 8.07947 73.1267 8.07947C75.0849 8.06861 77.043 8.06861 79.0012 8.07947C79.2728 8.07947 79.3176 7.98371 79.3157 7.74321C79.3071 6.38893 79.3214 5.03466 79.3033 3.67857C79.2995 3.38566 79.3938 3.26809 79.6644 3.17776C80.6868 2.82873 81.7102 2.47799 82.7097 2.07293C83.1528 1.89399 83.1585 2.05311 83.1547 2.41109C83.1413 4.12698 83.1671 5.84286 83.1366 7.55874C83.1271 8.01439 83.2662 8.09576 83.6864 8.0849C84.8898 8.05603 86.0961 8.0849 87.3005 8.0668C87.6188 8.06136 87.7541 8.11387 87.7379 8.47547C87.7055 9.18067 87.714 9.89121 87.736 10.5964C87.7455 10.9056 87.6673 11.0068 87.3424 11.0032C86.0923 10.9833 84.8412 11.0086 83.592 10.9869C83.2338 10.9815 83.1404 11.0809 83.1432 11.4371C83.1614 13.1838 83.1328 14.9286 83.1566 16.6753C83.189 19.0366 84.6592 20.1125 86.9384 19.4705C87.5949 19.2862 87.593 19.2862 87.7998 19.9461C87.9961 20.5754 88.1971 21.2045 88.402 21.832C88.4592 22.0127 88.523 22.1592 88.2591 22.2514C86.2533 22.9512 84.2228 23.1392 82.2085 22.3762C80.4134 21.6946 79.6234 20.2191 79.4005 18.3966C79.2328 17.0188 79.3462 15.6302 79.3271 14.2469C79.3119 13.2832 79.3119 12.3195 79.33 11.3576C79.3357 11.0773 79.2566 11.0068 78.9793 11.0086C77.0521 11.0213 75.1228 11.0195 73.1954 11.0086C72.9133 11.0086 72.8066 11.0646 72.8084 11.3756C72.8247 13.1964 72.803 15.019 72.8193 16.8397C72.8338 18.4055 73.5624 19.3693 74.8859 19.5899C75.5639 19.7038 76.2438 19.626 76.8875 19.3855C77.1587 19.2843 77.2673 19.2934 77.3541 19.5972C77.5728 20.3619 77.8223 21.1177 78.0809 21.8699C78.1478 22.067 78.1442 22.1737 77.9326 22.2478C75.8967 22.9548 73.839 23.1428 71.7977 22.3436C70.1542 21.7 69.3893 20.3403 69.1019 18.6696C69.0223 18.2085 68.9951 17.7438 68.9951 17.2756C68.9969 12.7607 69.0006 8.24402 68.9879 3.72916C68.9879 3.40558 69.0838 3.26627 69.3875 3.16146C70.5212 2.7727 71.6422 2.35145 72.8139 1.92467L72.812 1.92286Z" fill="white"/>
<path d="M47.7625 12.3918C48.5455 12.6721 49.2054 12.9849 49.7569 13.4857C52.4943 15.9701 51.6771 20.4144 48.229 21.7795C47.1496 22.2062 46.0232 22.3563 44.8696 22.3563C41.7958 22.3563 38.7238 22.3509 35.6501 22.3635C35.3029 22.3635 35.1962 22.2858 35.1962 21.9206C35.2089 15.8688 35.2071 9.81888 35.1962 3.76718C35.1962 3.42902 35.2758 3.34402 35.6175 3.34583C38.7365 3.36032 41.8537 3.33859 44.9727 3.36032C46.7952 3.37299 48.4587 3.86294 49.7171 5.27515C51.5506 7.33272 50.9593 10.6452 48.54 11.9759C48.3177 12.0989 48.0898 12.2164 47.7607 12.3918H47.7625ZM42.1592 14.3717C42.1592 14.3717 42.1592 14.359 42.1592 14.3537C41.2715 14.3537 40.3819 14.3626 39.4941 14.3482C39.2428 14.3446 39.1614 14.4061 39.1632 14.6682C39.1759 16.0821 39.1741 17.4961 39.1632 18.9119C39.1632 19.1559 39.2102 19.2518 39.4815 19.2481C41.1829 19.2355 42.8843 19.2554 44.5858 19.2355C45.3976 19.2265 46.1316 18.9607 46.6542 18.3025C47.2364 17.5703 47.3322 16.7403 46.9851 15.8833C46.6126 14.9629 45.8893 14.4458 44.9111 14.3843C43.9963 14.3265 43.076 14.3717 42.1574 14.3717H42.1592ZM41.7994 6.47754C41.031 6.47754 40.2643 6.4865 39.4959 6.47211C39.2464 6.46668 39.1614 6.52995 39.1632 6.79389C39.1759 8.2223 39.1723 9.65071 39.1668 11.0791C39.1668 11.2763 39.1976 11.3775 39.4344 11.3756C40.9695 11.3648 42.5064 11.4118 44.0397 11.354C45.6236 11.2943 46.627 10.2294 46.5837 8.77923C46.5439 7.4322 45.4771 6.50461 43.924 6.47754C43.217 6.46487 42.51 6.47573 41.8013 6.47573L41.7994 6.47754Z" fill="white"/>
<path d="M118.099 10.1426C119.465 8.44108 121.155 7.59495 123.242 7.62563C125.389 7.65641 126.976 8.62012 127.95 10.6108C128.234 10.2438 128.48 9.89483 128.784 9.59649C130.425 7.98371 132.4 7.36712 134.653 7.71968C136.805 8.05784 138.366 9.72122 138.781 12.0049C138.884 12.569 138.934 13.1386 138.936 13.7099C138.942 16.4493 138.931 19.1885 138.948 21.9295C138.95 22.3092 138.821 22.3708 138.486 22.3636C137.508 22.3436 136.528 22.3382 135.548 22.3654C135.15 22.3762 135.016 22.2894 135.02 21.8572C135.044 19.373 135.036 16.8904 135.029 14.4061C135.026 13.1386 134.611 12.0573 133.447 11.4155C131.823 10.5223 129.673 11.3124 128.945 13.0337C128.604 13.8383 128.509 14.6863 128.509 15.547C128.509 17.6535 128.507 19.7616 128.538 21.8681C128.543 22.2822 128.42 22.3636 128.036 22.3527C127.026 22.3255 126.016 22.331 125.006 22.3527C124.683 22.3599 124.609 22.2568 124.611 21.9476C124.623 19.4181 124.621 16.8904 124.616 14.3608C124.613 13.1277 124.211 12.0664 123.086 11.4353C121.266 10.4119 118.999 11.4082 118.367 13.4767C118.169 14.1295 118.099 14.8021 118.099 15.4801C118.099 17.6335 118.091 19.7852 118.109 21.9386C118.113 22.2858 118.013 22.3599 117.684 22.3527C116.644 22.331 115.605 22.3364 114.565 22.3509C114.286 22.3545 114.181 22.3021 114.183 21.9893C114.195 17.4581 114.195 12.9271 114.183 8.39591C114.183 8.11206 114.261 8.04698 114.534 8.0506C115.603 8.0668 116.673 8.07042 117.744 8.0506C118.054 8.04517 118.115 8.14998 118.105 8.43212C118.085 8.96723 118.099 9.50245 118.099 10.1444V10.1426Z" fill="white"/>
<path d="M61.826 16.0116C60.1245 16.0116 58.4231 16.0116 56.7217 16.0116C56.1233 16.0116 56.1088 16.0152 56.257 16.6101C56.6313 18.1235 57.4504 19.2554 59.0071 19.7219C60.6742 20.2209 62.6089 19.5501 63.5998 18.1217C63.7534 17.8993 63.9089 17.8053 64.1819 17.8107C65.1005 17.8288 66.019 17.8378 66.9376 17.8089C67.357 17.7963 67.3298 17.9391 67.2033 18.2393C66.2559 20.4777 64.6141 21.9531 62.2636 22.5407C59.4519 23.2423 56.814 22.8246 54.6659 20.7724C52.4311 18.637 51.8417 15.9483 52.6625 13.0264C53.4671 10.1589 55.4633 8.40858 58.3671 7.8101C61.0124 7.26403 63.4406 7.80648 65.4006 9.76286C67.0532 11.4119 67.6102 13.4966 67.5667 15.7803C67.5613 16.0948 67.3642 16.0116 67.2033 16.0134C65.4115 16.017 63.6197 16.0152 61.8278 16.0152L61.826 16.0116ZM56.3619 13.3844C56.4939 13.3899 56.5987 13.3989 56.7036 13.3989C58.8716 13.3989 61.0377 13.3899 63.2056 13.408C63.6088 13.4116 63.6124 13.2959 63.4894 12.9758C62.9018 11.448 61.6036 10.6037 59.8913 10.6579C58.2388 10.7103 56.8628 11.7572 56.3619 13.3827V13.3844Z" fill="white"/>
<path d="M91.7103 16.0116C91.8427 17.0477 92.1695 17.9698 92.8746 18.7202C94.5145 20.4632 97.4912 20.2029 98.8852 18.1796C99.0872 17.8866 99.2825 17.8035 99.6103 17.8107C100.438 17.8306 101.268 17.836 102.094 17.8089C102.485 17.7963 102.594 17.8577 102.421 18.2573C101.45 20.5391 99.8056 22.0544 97.3711 22.6058C94.7603 23.1971 92.363 22.7215 90.3629 20.8701C88.807 19.4308 88.0599 17.5757 88.0256 15.4747C87.9799 12.6721 89.0109 10.3541 91.4158 8.79734C95.2615 6.30937 101.502 7.61115 102.624 13.7244C102.738 14.3464 102.763 14.9756 102.776 15.6103C102.783 15.9701 102.657 16.0207 102.338 16.0189C98.9643 16.008 95.5902 16.0116 92.2162 16.0116H91.7103ZM98.9195 13.4007C98.9071 13.3032 98.9081 13.2434 98.89 13.1874C98.4221 11.6397 97.1939 10.6958 95.6065 10.6597C93.9742 10.6217 92.5364 11.598 92.0037 13.0699C91.877 13.4206 92.039 13.4025 92.2801 13.4025C93.858 13.3989 95.4368 13.4007 97.0157 13.4007C97.6446 13.4007 98.2716 13.4007 98.9176 13.4007H98.9195Z" fill="white"/>
<path d="M154.432 17.8179C153.667 19.9822 152.307 21.5228 150.192 22.3183C146.12 23.8498 141.029 22.0489 140.018 16.744C139.23 12.6124 141.605 8.51521 146.057 7.72149C150.176 6.98742 153.941 9.72122 154.515 13.889C154.592 14.4567 154.606 15.0263 154.628 15.5976C154.644 15.9303 154.558 16.0225 154.213 16.0207C151.141 16.0062 148.067 16.0116 144.993 16.0116C144.601 16.0116 144.21 16.0116 143.818 16.0116C143.679 16.0116 143.543 15.9918 143.581 16.2142C143.858 17.8866 144.782 19.3331 146.478 19.7707C148.083 20.1866 149.87 19.4977 150.79 18.1144C150.948 17.8795 151.103 17.8089 151.369 17.8125C152.372 17.827 153.377 17.8179 154.43 17.8179H154.432ZM150.772 13.3809C150.4 11.6433 148.966 10.5946 147.136 10.6579C145.353 10.7193 143.918 12.2743 143.823 13.3809H150.772Z" fill="white"/>
<path d="M160.216 10.1136C160.617 9.65795 160.932 9.26375 161.318 8.93655C163.197 7.35264 166.068 7.16093 168.042 8.52245C169.396 9.45547 170.014 10.8224 170.246 12.4009C170.322 12.9234 170.334 13.4496 170.334 13.9758C170.332 16.6391 170.327 19.3043 170.341 21.9676C170.341 22.2804 170.267 22.3726 169.947 22.3635C168.998 22.34 168.048 22.3346 167.101 22.3635C166.723 22.3762 166.662 22.2405 166.664 21.9043C166.676 19.4959 166.669 17.0875 166.671 14.6809C166.671 13.7153 166.528 12.7986 165.862 12.0302C164.66 10.6416 161.529 10.4969 160.572 13.1711C160.315 13.889 160.216 14.6285 160.216 15.3861C160.216 17.554 160.202 19.7201 160.226 21.888C160.232 22.3074 160.102 22.3762 159.726 22.3654C158.778 22.3382 157.827 22.3473 156.88 22.3617C156.604 22.3654 156.522 22.2876 156.522 22.0073C156.531 17.4617 156.529 12.9162 156.524 8.37237C156.524 8.1536 156.556 8.04879 156.815 8.05241C157.855 8.06679 158.894 8.06679 159.932 8.05241C160.19 8.04879 160.224 8.15179 160.218 8.36875C160.205 8.91845 160.214 9.46814 160.214 10.1154L160.216 10.1136Z" fill="white"/>
<path d="M113.23 11.4968C112.265 11.1569 111.332 11.0791 110.41 11.4425C108.943 12.0212 108.22 13.2001 107.875 14.6646C107.732 15.2667 107.705 15.8851 107.705 16.5017C107.705 18.3224 107.696 20.145 107.712 21.9657C107.714 22.2804 107.634 22.369 107.316 22.3636C106.232 22.3436 105.146 22.3454 104.063 22.3636C103.783 22.3672 103.712 22.2858 103.712 22.0091C103.722 17.478 103.72 12.9487 103.712 8.41763C103.712 8.16627 103.738 8.04517 104.044 8.0506C105.157 8.07042 106.273 8.0668 107.386 8.05241C107.647 8.04879 107.714 8.13016 107.709 8.38142C107.692 9.03593 107.703 9.69235 107.703 10.4752C108.115 9.87129 108.462 9.3741 108.931 8.97629C110.09 7.98905 111.449 7.61296 112.942 7.6202C113.109 7.6202 113.232 7.63468 113.232 7.85526C113.226 9.05585 113.23 10.2582 113.23 11.4987V11.4968Z" fill="white"/>
</svg>
