<svg width="172" height="38" viewBox="0 0 172 38" fill="none" xmlns="http://www.w3.org/2000/svg">
<path d="M0.290283 0.151978L20.8204 0.203475L21.6985 0.423715C25.9559 1.49171 29.0786 4.21539 30.6066 8.19352C30.9744 9.15116 31.3118 10.7027 31.3738 11.7217L31.4244 12.5527H25.221L25.1728 12.1549C25.0125 10.8328 24.5961 9.77953 23.85 8.8084C23.1037 7.83699 21.9809 7.04944 20.7369 6.62484L20.0678 6.39646L6.56224 6.34899V31.3147H12.7505V37.5128H0.290283V0.151978Z" fill="white"/>
<path d="M17.7254 31.4285L18.8115 31.3731C19.4089 31.3426 20.1312 31.2627 20.4166 31.1955C22.1689 30.7829 23.8658 29.4386 24.656 27.8369C25.317 26.4972 25.2932 26.7085 25.3275 21.8841L25.358 17.5871H31.4244L31.3624 26.9213L31.1504 27.7849C30.5544 30.2117 29.5201 32.0685 27.8069 33.7875C26.4163 35.1826 24.8797 36.1538 23.0665 36.7834C21.7124 37.2535 20.8211 37.4098 19.1803 37.4644L17.7254 37.5128V31.4285Z" fill="white"/>
<path d="M66.7476 11.2734C65.8308 11.2933 64.9145 11.4049 64.3378 11.6008C63.1403 12.0077 61.904 13.0349 61.3386 14.0932C60.9538 14.8136 60.9092 15.2089 60.8509 18.4259C60.8087 20.7537 60.8634 22.2215 61.0104 22.7122C61.5033 24.3575 62.7808 25.635 64.4877 26.1895C65.0278 26.3649 65.9473 26.4388 67.1334 26.4021C69.9857 26.3137 71.6035 25.3898 72.5166 23.3282C72.8892 22.4869 72.9613 21.9413 73.0274 19.4604C73.1162 16.1384 72.9087 14.8017 72.1219 13.6302C71.4991 12.7029 70.285 11.8282 69.1604 11.4961C68.5819 11.3252 67.6645 11.2535 66.7476 11.2734ZM67.001 14.1335C67.8183 14.1566 68.6246 14.4413 69.1642 15.004L69.7165 15.5799L69.7708 18.6771C69.8322 22.1864 69.69 22.6695 68.4186 23.2729C67.0376 23.9282 65.2108 23.5262 64.3722 22.3822C64.0112 21.8898 63.976 21.5744 63.976 18.8423C63.976 16.2159 64.0209 15.7762 64.3378 15.3086C64.8812 14.5069 65.9502 14.1041 67.001 14.1335Z" fill="white"/>
<path d="M104.402 26.272C102.84 25.8015 101.854 24.6619 101.595 23.027L101.442 22.0615H103.018C104.591 22.0615 104.592 22.0618 104.833 22.6428C105.253 23.6566 106.465 23.9205 107.384 23.1979L107.886 22.8035L107.987 11.4414H111.049L111.1 17.0751C111.159 23.6649 111.062 24.2903 109.805 25.3656C109.386 25.7246 108.709 26.1183 108.301 26.2404C107.464 26.4915 105.192 26.5099 104.402 26.272Z" fill="white"/>
<path d="M120.902 11.2649C119.317 11.2634 118.938 11.3308 117.937 11.7938C116.519 12.4495 116.029 12.897 115.388 14.1202C114.915 15.0231 114.883 15.262 114.815 18.3606C114.756 20.9971 114.803 21.8564 115.055 22.7217C115.55 24.4217 117.076 25.8388 118.893 26.283C119.992 26.5517 122.358 26.4723 123.416 26.1317C124.878 25.6607 126.312 24.2319 126.721 22.8398C127.134 21.4313 127.149 16.2304 126.743 14.8643C126.345 13.523 125.377 12.4753 123.929 11.8162C122.87 11.335 122.494 11.2665 120.902 11.2649ZM120.946 14.1442C121.589 14.1564 122.233 14.2971 122.661 14.5621C123.667 15.1833 123.773 15.6061 123.773 18.9829C123.773 21.7982 123.744 22.0466 123.358 22.5371C123.13 22.8272 122.659 23.1832 122.311 23.3283C120.89 23.9225 119.083 23.4948 118.419 22.407C118.077 21.8454 118.033 21.4445 118.033 18.8379C118.033 15.5877 118.158 15.1376 119.243 14.497C119.663 14.2482 120.304 14.132 120.946 14.1442Z" fill="white"/>
<path d="M163.607 26.1787C162.504 25.8346 161.415 25.0589 160.829 24.1989C160.309 23.4373 159.85 21.9752 160.036 21.6745C160.1 21.5717 160.819 21.4876 161.636 21.4876C163.12 21.4876 163.121 21.4881 163.395 22.0957C163.858 23.1256 164.563 23.4967 166.055 23.4967C167.601 23.4967 168.166 23.1386 168.166 22.1573C168.166 21.2597 167.674 20.9422 165.356 20.3457C162.691 19.659 162.408 19.5391 161.479 18.7002C159.834 17.2134 159.703 14.5381 161.196 12.8861C163.405 10.4403 168.598 10.7456 170.372 13.4256C170.641 13.8309 170.911 14.476 170.973 14.8591L171.086 15.5557H169.546C168.118 15.5557 167.98 15.5204 167.653 15.0705C166.563 13.5749 163.382 13.9316 163.382 15.5492C163.382 16.3697 164.054 16.7764 166.365 17.3558C168.695 17.9394 169.347 18.2279 170.228 19.064C170.881 19.6836 171.419 21.0786 171.417 22.1442C171.414 23.9911 170.178 25.6171 168.369 26.1545C167.12 26.5251 164.754 26.5371 163.607 26.1787Z" fill="white"/>
<path d="M45.2235 11.4414L45.1234 26.2711H48.7965C53.1867 26.2711 54.2331 26.0564 55.567 24.8824C57.1111 23.5231 57.2665 23.0292 57.3411 19.2402C57.3933 16.5835 57.3457 15.7591 57.0966 15.0094C56.6516 13.6697 55.6984 12.6545 54.2769 12.0058C53.0729 11.4563 53.0555 11.4542 49.1462 11.4478L45.2235 11.4414ZM48.3809 14.4074H50.415C52.1037 14.4074 52.5533 14.4715 53.0585 14.7837C54.0865 15.4191 54.217 15.8855 54.217 18.9202C54.217 21.9841 54.071 22.4014 52.7681 23.0656C52.2764 23.3164 51.6445 23.4003 50.2465 23.4005L48.3809 23.4009V14.4074Z" fill="white"/>
<path d="M78.7108 25.8407C78.3959 24.5243 75.936 11.9761 75.936 11.6885C75.936 11.388 76.1227 11.3458 77.4512 11.3458H78.9664L79.153 12.2547C79.2555 12.7547 79.6661 14.9487 80.0652 17.1306C80.4643 19.3123 80.8166 21.0715 80.8491 21.0398C80.8807 21.008 81.344 19.5243 81.879 17.7426C82.4131 15.9608 83.0668 13.7885 83.331 12.915L83.8106 11.3269L85.7699 11.4415L87.1998 16.2732C87.9857 18.9306 88.6538 21.0802 88.6834 21.05C88.7141 21.0199 89.1304 18.9011 89.61 16.3416C90.0895 13.7821 90.5288 11.611 90.5872 11.5169C90.7145 11.3106 93.4807 11.2853 93.6051 11.4893C93.6539 11.5683 93.0356 14.9264 92.2326 18.9521L90.771 26.2712H87.3118L86.0915 22.3485C85.4205 20.1911 84.8194 18.4275 84.7572 18.4295C84.694 18.4316 84.3695 19.3141 84.0355 20.3909C83.7014 21.4676 83.152 23.2311 82.8142 24.3099L82.1997 26.2712H80.5064C78.909 26.2712 78.8075 26.247 78.7108 25.8407Z" fill="white"/>
<path d="M130.757 11.4415L133.819 11.3367L139.751 20.814L139.853 11.3458H142.908V26.2712L139.751 26.2697L134.011 17.1045L133.907 26.271H130.657L130.757 11.4415Z" fill="white"/>
<path d="M146.926 11.3394L156.781 11.4415V14.3119L150.18 14.4166V17.2678L156.016 17.3734L156.128 20.148H150.18V23.401H156.877V26.2713H146.926V11.3394Z" fill="white"/>
</svg>
