<svg width="177" height="28" viewBox="0 0 177 28" fill="none" xmlns="http://www.w3.org/2000/svg">
<g clip-path="url(#clip0_20_2079)">
<path d="M55.0933 23.7509C50.14 23.7509 47.065 20.2389 47.065 14.5933C47.065 9.15754 50.2934 5.50171 55.0933 5.50171C59.7764 5.50171 63.0479 8.9238 63.0479 13.8262V15.8519H51.3614V17.2003C51.3614 19.262 52.9081 20.7063 55.13 20.7063C57.1126 20.7063 58.4998 19.6155 58.7698 17.8536H62.8821C62.2561 21.5514 59.3591 23.7509 55.0933 23.7509ZM55.0933 8.54623C52.9634 8.54623 51.3614 10.0385 51.3614 12.0162V12.8074H58.825V12.0162C58.825 10.0385 57.223 8.54623 55.0933 8.54623Z" fill="white"/>
<path d="M87.4764 23.3313V12.1841C87.4764 9.88274 86.5435 8.71404 84.7083 8.71404C82.4741 8.71404 80.9765 10.5299 80.9765 13.2269V23.3254H76.858V12.1781C76.858 9.87676 75.9251 8.70805 74.0899 8.70805C71.8556 8.70805 70.358 10.5239 70.358 13.2209V23.3194H66.2396V5.91524H70.358V8.40239C71.4321 6.44863 73.3471 5.49571 75.5506 5.49571C78.0058 5.49571 79.7121 6.59846 80.4854 8.69007L80.6143 9.04366L80.7924 8.71404C81.9524 6.55051 83.714 5.49571 86.1691 5.49571C89.6677 5.49571 91.595 7.76113 91.595 11.8724V23.3313H87.4764Z" fill="white"/>
<path d="M104.773 23.7509C102.545 23.7509 100.759 22.804 99.605 21.012L99.2921 20.5265V23.3373H95.1733V0H99.2921V8.72603L99.605 8.24058C100.759 6.44863 102.545 5.50171 104.773 5.50171C107.038 5.50171 108.812 6.3887 110.045 8.14469C111.169 9.74487 111.764 11.9863 111.764 14.6293C111.764 17.2722 111.169 19.5137 110.045 21.1138C108.812 22.8638 107.038 23.7509 104.773 23.7509ZM103.564 8.54623C100.814 8.54623 99.298 10.2363 99.298 13.3048V15.9477C99.298 19.0162 100.814 20.7063 103.564 20.7063C105.976 20.7063 107.473 19.3339 107.473 17.1345V12.1241C107.473 9.91268 105.976 8.54623 103.564 8.54623Z" fill="white"/>
<path d="M130.908 23.7509C129.336 23.7509 127.955 23.2355 126.925 22.2645C125.887 21.2876 125.335 19.9692 125.335 18.4529C125.335 15.4803 127.612 13.3707 131.129 13.083L136.31 12.6516V11.351C136.31 9.51113 135.266 8.54024 133.289 8.54024C131.362 8.54024 130.141 9.49315 130.061 11.0454H125.949C126.163 7.61729 129.03 5.49571 133.467 5.49571C137.844 5.49571 140.354 7.65325 140.354 11.4229V23.3313H136.702V20.5805H136.573C135.474 22.6541 133.399 23.7509 130.908 23.7509ZM130.785 16.0976C130.012 16.1755 129.631 16.601 129.631 17.4101V18.9443C129.631 20.0351 130.718 20.7063 132.473 20.7063C134.731 20.7063 136.31 18.9803 136.31 16.5051V15.6302L130.785 16.0976Z" fill="white"/>
<path d="M151.335 23.7509C146.283 23.7509 143.269 20.3768 143.269 14.7312C143.269 9.03767 146.332 5.50171 151.261 5.50171C154.563 5.50171 158.221 7.10188 158.669 11.5728H154.55C154.28 9.5351 153.145 8.54623 151.089 8.54623C149.468 8.54623 147.572 9.49915 147.572 12.19V17.0625C147.572 19.244 149.002 20.7063 151.126 20.7063C153.311 20.7063 154.391 19.7594 154.698 17.5419H158.817C158.356 21.4315 155.576 23.7509 151.335 23.7509Z" fill="white"/>
<path d="M168.815 23.7509C163.862 23.7509 160.786 20.2389 160.786 14.5933C160.786 9.15754 164.015 5.50171 168.815 5.50171C173.498 5.50171 176.77 8.9238 176.77 13.8262V15.8519H165.083V17.2003C165.083 19.262 166.63 20.7063 168.852 20.7063C170.834 20.7063 172.215 19.6155 172.492 17.8536H176.604C175.984 21.5514 173.087 23.7509 168.815 23.7509ZM168.815 8.54623C166.685 8.54623 165.083 10.0385 165.083 12.0162V12.8074H172.547V12.0162C172.547 10.0385 170.945 8.54623 168.815 8.54623Z" fill="white"/>
<path d="M114.421 23.3313V5.91524H118.479V7.92893C118.484 7.91096 119.393 5.98715 121.376 5.91524H124.242V8.99571H118.54V23.3313H114.421Z" fill="white"/>
<path d="M14.0311 6.29281V0.653253H7.01555V0.659245L0 7.49144V21.1618H0.00613798L7.01555 28V27.994H14.0311V22.3604H5.78798V6.29281H14.0311Z" fill="white"/>
<path d="M24.5452 6.29281V0.653253H31.5546V0.659245L38.5702 7.49144V21.1618L31.5546 28V27.994H24.5452V22.3604H32.7883V6.29281H24.5452Z" fill="white"/>
<path d="M24.9135 18.4709C27.2558 18.4709 29.1547 16.6167 29.1547 14.3296C29.1547 12.0425 27.2558 10.1883 24.9135 10.1883C22.5711 10.1883 20.6722 12.0425 20.6722 14.3296C20.6722 16.6167 22.5711 18.4709 24.9135 18.4709Z" fill="white"/>
<path d="M13.6628 18.4649C16.0052 18.4649 17.9041 16.6108 17.9041 14.3236C17.9041 12.0364 16.0052 10.1823 13.6628 10.1823C11.3205 10.1823 9.42158 12.0364 9.42158 14.3236C9.42158 16.6108 11.3205 18.4649 13.6628 18.4649Z" fill="white"/>
</g>
<defs>
<clipPath id="clip0_20_2079">
<rect width="177" height="28" fill="white"/>
</clipPath>
</defs>
</svg>
