<svg width="155" height="45" viewBox="0 0 155 45" fill="none" xmlns="http://www.w3.org/2000/svg">
<path d="M53.4984 10.0097H68.1822V12.8691H56.4854V21.5029H67.0376V24.3345H56.4854V35.2724H53.4984V10.0097Z" fill="white"/>
<path d="M71.7289 10.0097H74.7438V35.2447H71.7289V10.0097Z" fill="white"/>
<path d="M80.8007 33.9124C79.6562 32.6354 79.0698 30.8587 79.0698 28.5823V17.2556H82.0848V28.1103C82.0848 29.8315 82.4756 31.0808 83.2573 31.8859C84.0389 32.6909 85.0998 33.0796 86.4118 33.0796C87.4167 33.0796 88.338 32.8019 89.1196 32.2746C89.9013 31.7471 90.5155 31.0253 90.9621 30.1646C91.4088 29.304 91.6042 28.388 91.6042 27.4163V17.2556H94.647V35.245H91.7716V32.6354H91.6321C91.1296 33.5237 90.3479 34.2734 89.2592 34.884C88.1705 35.4948 87.0259 35.8002 85.7976 35.8002C83.5923 35.828 81.9452 35.1895 80.8007 33.9124Z" fill="white"/>
<path d="M104.194 35.4667C103.58 35.2169 103.049 34.9116 102.603 34.4951C102.128 34.0509 101.766 33.5234 101.542 32.9128C101.319 32.302 101.179 31.5802 101.179 30.7196V19.976H98.0246V17.2554H101.179V12.1751H104.194V17.2554H108.605V19.976H104.222V29.9978C104.222 30.9972 104.417 31.7468 104.78 32.2188C105.227 32.7461 105.869 33.0238 106.734 33.0238C107.433 33.0238 108.075 32.8294 108.716 32.4131V35.328C108.353 35.4945 107.991 35.6056 107.628 35.6889C107.265 35.7722 106.79 35.7999 106.232 35.7999C105.506 35.8277 104.808 35.6889 104.194 35.4667Z" fill="white"/>
<path d="M116.981 35.4667C116.367 35.2169 115.837 34.9116 115.39 34.4951C114.915 34.0509 114.552 33.5234 114.329 32.9128C114.106 32.302 113.966 31.5802 113.966 30.7196V19.976H110.839V17.2554H113.994V12.1751H117.009V17.2554H121.391V19.976H117.009V29.9978C117.009 30.9972 117.205 31.7468 117.567 32.2188C118.014 32.7461 118.656 33.0238 119.521 33.0238C120.219 33.0238 120.861 32.8294 121.504 32.4131V35.328C121.141 35.4945 120.777 35.6056 120.414 35.6889C120.052 35.7722 119.578 35.7999 119.018 35.7999C118.293 35.8277 117.623 35.6889 116.981 35.4667Z" fill="white"/>
<path d="M127.672 34.5787C126.304 33.7459 125.243 32.6354 124.461 31.1641C123.68 29.7205 123.317 28.0827 123.317 26.2782C123.317 24.5293 123.68 22.9468 124.405 21.4755C125.132 20.0319 126.137 18.8659 127.477 17.9776C128.788 17.117 130.324 16.6728 132.082 16.6728C133.841 16.6728 135.404 17.0614 136.689 17.8665C138.001 18.6438 138.978 19.7542 139.675 21.1145C140.374 22.5026 140.708 24.085 140.708 25.8617C140.708 26.2226 140.68 26.528 140.597 26.7779H126.304C126.387 28.1382 126.695 29.3042 127.309 30.2203C127.895 31.1641 128.649 31.8581 129.57 32.3301C130.491 32.8021 131.44 33.0241 132.417 33.0241C134.735 33.0241 136.521 31.9414 137.777 29.7761L140.318 30.9976C139.536 32.4411 138.475 33.6071 137.135 34.44C135.795 35.2728 134.176 35.717 132.306 35.717C130.603 35.828 129.04 35.4117 127.672 34.5787ZM137.526 24.3626C137.471 23.6131 137.275 22.8635 136.884 22.114C136.494 21.3644 135.907 20.7259 135.098 20.1984C134.288 19.671 133.255 19.4211 132.026 19.4211C130.603 19.4211 129.403 19.8654 128.426 20.7814C127.449 21.6975 126.806 22.8913 126.5 24.3626H137.526Z" fill="white"/>
<path d="M144.226 17.2835H147.101V20.1707H147.241C147.604 19.1712 148.274 18.3661 149.307 17.6999C150.312 17.0336 151.372 16.7005 152.489 16.7005C153.327 16.7005 154.025 16.8393 154.611 17.0891V20.3094C153.857 19.9208 152.992 19.7542 152.071 19.7542C151.205 19.7542 150.395 20.0041 149.67 20.5037C148.944 21.0035 148.358 21.6697 147.911 22.5026C147.464 23.3355 147.269 24.2516 147.269 25.1954V35.2727H144.254V17.2835H144.226Z" fill="white"/>
<path d="M7.14689 29.2068L0.452637 22.5497L22.2048 0.918091H35.5905L7.14689 29.2068Z" fill="white"/>
<path d="M35.5897 20.8867H22.204L10.4932 32.5354L17.1847 39.1897L35.5897 20.8867Z" fill="white"/>
<path d="M22.2056 44.1813L17.1863 39.1898L23.8778 32.5355L35.5913 44.1813H22.2056Z" fill="white"/>
</svg>
