<svg width="141" height="47" viewBox="0 0 141 47" fill="none" xmlns="http://www.w3.org/2000/svg">
<path d="M60.4274 24.926C60.4274 31.568 55.2249 36.4624 48.8406 36.4624C42.4564 36.4624 37.2541 31.568 37.2541 24.926C37.2541 18.2371 42.4564 13.3895 48.8406 13.3895C55.2249 13.3895 60.4274 18.2371 60.4274 24.926ZM55.3552 24.926C55.3552 20.7753 52.34 17.9354 48.8406 17.9354C45.3413 17.9354 42.3261 20.7753 42.3261 24.926C42.3261 29.035 45.3413 31.9165 48.8406 31.9165C52.34 31.9165 55.3552 29.0298 55.3552 24.926Z" fill="white"/>
<path d="M85.4243 24.926C85.4243 31.568 80.2219 36.4624 73.8375 36.4624C67.4531 36.4624 62.2516 31.568 62.2516 24.926C62.2516 18.2423 67.4531 13.3895 73.8375 13.3895C80.2219 13.3895 85.4243 18.2371 85.4243 24.926ZM80.352 24.926C80.352 20.7753 77.3373 17.9354 73.8375 17.9354C70.3385 17.9354 67.3229 20.7753 67.3229 24.926C67.3229 29.035 70.3385 31.9165 73.8375 31.9165C77.3373 31.9165 80.352 29.0298 80.352 24.926Z" fill="white"/>
<path d="M109.377 14.0865V34.798C109.377 43.3178 104.347 46.7974 98.3998 46.7974C92.8021 46.7974 89.4324 43.0576 88.1624 39.9993L92.5781 38.1633C93.3639 40.0409 95.2914 42.2567 98.3941 42.2567C102.201 42.2567 104.56 39.9109 104.56 35.495V33.8357H104.383C103.248 35.2349 101.06 36.4573 98.3012 36.4573C92.5255 36.4573 87.235 31.4328 87.235 24.9675C87.235 18.4556 92.5255 13.3895 98.3012 13.3895C101.056 13.3895 103.242 14.6118 104.383 15.9694H104.56V14.0917H109.377V14.0865ZM104.919 24.9675C104.919 20.9054 102.206 17.9354 98.7539 17.9354C95.254 17.9354 92.3226 20.9054 92.3226 24.9675C92.3226 28.9882 95.254 31.9165 98.7539 31.9165C102.206 31.9165 104.919 28.9882 104.919 24.9675Z" fill="white"/>
<path d="M117.319 1.94678V35.7552H112.373V1.94678H117.319Z" fill="white"/>
<path d="M136.597 28.723L140.534 31.3444C139.263 33.2221 136.201 36.4573 130.91 36.4573C124.349 36.4573 119.449 31.3913 119.449 24.9208C119.449 18.0603 124.391 13.3843 130.343 13.3843C136.337 13.3843 139.268 18.1488 140.226 20.7234L140.753 22.0341L125.313 28.4213C126.495 30.7359 128.333 31.9166 130.91 31.9166C133.493 31.9166 135.285 30.6475 136.597 28.723ZM124.479 24.5724L134.801 20.2917C134.233 18.8509 132.525 17.8471 130.515 17.8471C127.937 17.8471 124.349 20.1201 124.479 24.5724Z" fill="white"/>
<path d="M18.5286 21.9249V17.0305H35.0413C35.2026 17.8836 35.286 18.8926 35.286 19.9848C35.286 23.657 34.2809 28.1976 31.0419 31.4329C27.8914 34.7097 23.8661 36.4573 18.5337 36.4573C8.65012 36.4573 0.339111 28.4161 0.339111 18.5441C0.339111 8.67208 8.65012 0.630859 18.5337 0.630859C24.0016 0.630859 27.8967 2.77376 30.8232 5.56687L27.3656 9.02053C25.267 7.05449 22.4237 5.52524 18.5286 5.52524C11.3111 5.52524 5.66627 11.3351 5.66627 18.5441C5.66627 25.7531 11.3111 31.5629 18.5286 31.5629C23.21 31.5629 25.8762 29.6853 27.5842 27.9792C28.9694 26.5957 29.8806 24.6192 30.24 21.9198L18.5286 21.9249Z" fill="white"/>
</svg>
