<svg width="186" height="34" viewBox="0 0 186 34" fill="none" xmlns="http://www.w3.org/2000/svg">
<path d="M48.648 17.2938H37.9258V16.9006C37.9178 16.8239 37.904 16.7478 37.8846 16.673C37.855 16.6217 37.8341 16.5658 37.8227 16.5077C37.8227 16.4663 37.8433 16.4663 37.8433 16.4248C37.8433 16.3834 37.8227 16.342 37.8227 16.3007C37.8227 16.2593 37.8019 16.1143 37.8019 16.011C37.8019 15.9281 37.7607 15.5971 37.7607 15.5148C37.7607 15.4326 37.6986 14.956 37.6986 14.8112C37.678 14.6663 37.6574 14.4805 37.6366 14.294C37.616 14.1074 37.5335 13.6938 37.5335 13.6524C37.5335 13.6111 37.5335 13.6111 37.5127 13.5903H37.3887C37.3571 13.5374 37.3294 13.4821 37.3061 13.4251C37.3061 13.4043 37.3061 13.4043 37.3267 13.4043V13.3619C37.3295 13.3619 37.3322 13.3614 37.3348 13.3605C37.3373 13.3594 37.3396 13.3579 37.3416 13.356C37.3435 13.3539 37.345 13.3517 37.346 13.3492C37.347 13.3466 37.3475 13.3439 37.3474 13.3411C37.3474 13.3204 37.3267 13.2582 37.3267 13.2377C37.3267 13.2171 37.3061 13.1549 37.3061 13.1343C37.2966 13.0848 37.2828 13.0363 37.2647 12.9893C37.244 12.9272 37.2235 12.9272 37.2028 12.8652C37.1845 12.8049 37.1775 12.7417 37.182 12.6789C37.1774 12.6125 37.1561 12.5485 37.1201 12.4926C37.1064 12.4605 37.0851 12.432 37.0581 12.4098C37.0414 12.3781 37.0342 12.3421 37.0374 12.3064V12.1615C37.0374 12.1201 37.0167 12.0994 37.0374 12.0786C37.0581 12.0578 37.2025 11.9751 37.3059 11.9132C37.4028 11.8546 37.4929 11.7852 37.5744 11.7064C37.6363 11.6651 37.6984 11.603 37.6984 11.5822C37.719 11.5614 37.719 11.5614 37.7396 11.5614C37.7602 11.5614 37.7809 11.5407 37.8636 11.4994C37.9256 11.4581 38.0287 11.3959 38.0496 11.3752C38.0704 11.3544 38.0496 11.3544 38.0496 11.3338C38.0496 11.3133 38.0703 11.3131 38.0908 11.3131C38.1794 11.2514 38.2622 11.1821 38.3388 11.1061C38.3919 11.045 38.4339 10.9749 38.4627 10.8992C38.4627 10.8371 38.4421 10.6923 38.4421 10.5888C38.4421 10.4852 38.4007 10.1128 38.4007 10.0507C38.4007 9.98862 38.3801 9.94728 38.4007 9.94728C38.4215 9.92651 38.4627 9.94728 38.5658 9.92651C38.7043 9.92105 38.8423 9.90718 38.9791 9.88517C39.07 9.87148 39.1597 9.85081 39.2475 9.82315C39.3095 9.80238 39.3508 9.78181 39.3302 9.74027C39.3097 9.69883 39.2475 9.55403 39.1651 9.36779C39.0922 9.21476 38.9945 9.07484 38.8759 8.95387C38.7811 8.86965 38.6915 8.77989 38.6074 8.68495C38.4453 8.51565 38.2729 8.35668 38.091 8.20892C37.9463 8.08479 37.719 7.91922 37.5126 7.77433C37.3848 7.69154 37.2669 7.5944 37.1614 7.48463C37.0787 7.38118 36.9342 7.23628 36.8928 7.17417C36.8516 7.11215 36.7895 7.02927 36.7689 6.98793C36.7134 6.87385 36.665 6.75632 36.6242 6.63612C36.6035 6.5741 36.5829 6.55334 36.5829 6.53276C36.5829 6.51209 36.6036 6.34643 36.6036 6.2223C36.6244 6.07731 36.6244 5.97395 36.6656 5.9326C36.6848 5.87365 36.7126 5.81786 36.7483 5.76723C36.7929 5.68483 36.8143 5.5919 36.8103 5.4983C36.8066 5.42088 36.7927 5.34441 36.769 5.27062C36.7483 5.18784 36.6863 5.06381 36.6863 5.02227C36.6863 4.98083 36.6656 4.81526 36.645 4.67046C36.6224 4.54749 36.5805 4.42872 36.5211 4.31875C36.4914 4.28918 36.4687 4.25348 36.4543 4.21415C36.44 4.17481 36.4346 4.1328 36.4384 4.09107C36.4384 4.00829 36.4591 3.98771 36.4176 3.90483C36.397 3.82205 36.3764 3.84272 36.335 3.80138C36.3193 3.78511 36.3075 3.76549 36.3003 3.74405C36.2931 3.72252 36.2909 3.69974 36.2937 3.67725C36.2937 3.63591 36.2729 3.63591 36.2317 3.55303C36.2135 3.48565 36.2065 3.41569 36.211 3.34602C36.2112 3.31386 36.2038 3.28219 36.1895 3.25338C36.1751 3.22467 36.1542 3.19969 36.1283 3.18064C36.1076 3.15997 36.1283 3.15997 36.1283 3.1393C36.1524 3.08781 36.1596 3.02991 36.149 2.97392C36.1238 2.87439 36.0893 2.77735 36.0457 2.68423C36.0198 2.6313 35.999 2.57589 35.9837 2.51885C35.9837 2.49818 35.9837 2.49818 36.0045 2.4776C36.0252 2.45693 36.0045 2.43626 36.0045 2.39472V2.2705C36.0045 2.20849 35.9837 2.20848 35.9632 2.1256C35.9485 2.05067 35.9416 1.9744 35.9425 1.89802C35.9425 1.87726 35.9218 1.85668 35.9012 1.83591H35.8185C35.8287 1.81648 35.8357 1.79552 35.8392 1.7738C35.8444 1.74269 35.8587 1.71379 35.8806 1.69102C35.8887 1.68317 35.8984 1.67723 35.9092 1.6736C35.9199 1.67006 35.9313 1.66891 35.9425 1.67025C35.9643 1.64747 35.9786 1.61857 35.9837 1.58746V1.54545C35.9643 1.53531 35.9434 1.52832 35.9218 1.52468C35.9106 1.52612 35.8992 1.52497 35.8884 1.52133C35.8777 1.51779 35.8679 1.51186 35.8598 1.50401C35.8316 1.50841 35.804 1.5153 35.7771 1.52468C35.7564 1.52468 35.7564 1.50401 35.7564 1.48343C35.7357 1.46267 35.7357 1.46267 35.7151 1.46267V1.4419C35.7151 1.42113 35.7564 1.33844 35.7771 1.27652C35.7875 1.22187 35.7875 1.16579 35.7771 1.11115C35.7771 1.0698 35.7564 1.04903 35.7564 1.02836C35.7569 1.00692 35.7514 0.98587 35.7403 0.96759C35.7294 0.949311 35.7135 0.934479 35.6944 0.924909C35.6803 0.91285 35.6635 0.904713 35.6455 0.901076C35.6274 0.89744 35.6087 0.898493 35.5911 0.904139C35.58 0.88184 35.5662 0.860977 35.5499 0.842028C35.5291 0.82126 35.5086 0.842028 35.4879 0.842028C35.4767 0.830927 35.4694 0.816378 35.4672 0.800683C35.4672 0.780011 35.4464 0.759341 35.4052 0.759341C35.3639 0.759341 35.3432 0.780109 35.3432 0.759341C35.3432 0.738669 35.3639 0.697323 35.3639 0.676555C35.3639 0.655788 35.3846 0.614446 35.3846 0.593678C35.3933 0.537405 35.4071 0.482086 35.4259 0.4283C35.4399 0.388488 35.4469 0.346474 35.4466 0.304173C35.4466 0.283405 35.4053 0.262829 35.3846 0.304173C35.3639 0.324941 35.3434 0.366283 35.3226 0.386955C35.3062 0.411264 35.2989 0.440646 35.3019 0.469836C35.3019 0.490603 35.2607 0.573291 35.2607 0.593963C35.2615 0.622961 35.2544 0.651674 35.2399 0.676844C35.2246 0.716369 35.2175 0.75867 35.2192 0.800971C35.2141 0.832171 35.1997 0.861074 35.178 0.883852C35.1698 0.920315 35.1559 0.955244 35.1367 0.987305C35.1367 1.02865 35.0747 1.11143 35.0747 1.15268C35.0789 1.19661 35.0931 1.2391 35.116 1.27681L35.178 1.40103C35.1621 1.40256 35.1474 1.40994 35.1367 1.42171L35.116 1.44247C35.116 1.46324 35.054 1.50458 35.0127 1.50458C34.9967 1.50487 34.981 1.5087 34.9667 1.51588C34.9524 1.52306 34.9399 1.5333 34.93 1.54593C34.9093 1.5667 34.8268 1.64939 34.806 1.64939C34.7853 1.64939 34.806 1.67006 34.8268 1.7114C34.8474 1.75275 34.9095 1.77351 34.9095 1.79428C34.9095 1.81505 34.8888 1.81505 34.8888 1.83562C34.8888 1.8562 34.9095 1.85639 34.93 1.87697C34.9594 1.90501 34.9947 1.92626 35.0333 1.93908C35.054 1.93908 35.054 1.95985 35.054 1.98042C35.054 2.001 35.0952 2.10455 35.0952 2.12532V2.33223C35.0952 2.3529 35.0745 2.3529 35.0745 2.41501C35.0756 2.42803 35.0799 2.44057 35.0871 2.45148C35.0944 2.46229 35.1042 2.4711 35.1158 2.47713C35.1271 2.48823 35.1344 2.50278 35.1366 2.51847V2.55981C35.1365 2.56249 35.1369 2.56527 35.138 2.56776C35.139 2.57034 35.1405 2.57264 35.1425 2.57455C35.1444 2.57656 35.1467 2.57809 35.1493 2.57905C35.1518 2.5801 35.1545 2.58058 35.1572 2.58058V2.62192C35.1572 2.6426 35.178 2.70471 35.178 2.72529V2.80817C35.1769 2.86396 35.1839 2.91966 35.1987 2.97354C35.2228 3.02847 35.2579 3.07776 35.3019 3.11844C35.3226 3.1392 35.3019 3.20131 35.3019 3.26333C35.2977 3.35348 35.3047 3.44383 35.3226 3.53235C35.3361 3.56518 35.3431 3.6003 35.3434 3.63571C35.3324 3.69735 35.3324 3.76042 35.3434 3.82205C35.364 3.92541 35.3846 3.94618 35.3846 3.96695C35.3846 3.98771 35.4053 4.09107 35.4053 4.17395C35.4223 4.22027 35.4294 4.26966 35.4261 4.31885C35.4261 4.36019 35.4467 4.4223 35.4467 4.44307C35.4572 4.5047 35.4572 4.56768 35.4467 4.62931C35.4467 4.79469 35.4261 4.89824 35.4055 4.87766C35.3848 4.83632 35.4055 4.77421 35.4055 4.73277C35.4016 4.67563 35.3876 4.61965 35.3642 4.56739C35.3642 4.54662 35.3435 4.54662 35.323 4.52605C35.3123 4.51418 35.2975 4.50681 35.2816 4.50528L35.261 4.46393V4.40182C35.2588 4.38622 35.2515 4.37168 35.2402 4.36048C35.2313 4.3265 35.2244 4.29196 35.2195 4.25712C35.1989 4.23635 35.1989 4.15366 35.1989 4.13289C35.1663 4.10265 35.1385 4.06782 35.1161 4.02944C35.0718 4.00676 35.0301 3.979 34.9921 3.94666C34.962 3.91412 34.9272 3.88617 34.8889 3.86378C34.8476 3.8431 34.8062 3.84311 34.7649 3.82243C34.7116 3.8054 34.6556 3.79841 34.5998 3.80176C34.5585 3.80176 34.4966 3.82243 34.4551 3.82243C34.426 3.81937 34.3967 3.82674 34.3725 3.8432C34.3517 3.8432 34.3104 3.86397 34.2898 3.86397C34.269 3.86397 34.2278 3.88473 34.2278 3.90531C34.2071 3.92608 34.1865 3.94666 34.1865 3.96743C34.1758 3.96829 34.1658 3.97288 34.1583 3.98044C34.1507 3.988 34.146 3.99805 34.1453 4.00877C34.1401 4.03987 34.1257 4.06877 34.1039 4.09155C34.1039 4.11232 34.0832 4.11232 34.0627 4.13289C34.0421 4.15347 34.042 4.15366 34.042 4.17424C34.042 4.19663 34.0347 4.21845 34.0212 4.23635C34.0212 4.25712 34.0006 4.2777 34.0006 4.31914V4.46412C33.999 4.55744 34.0203 4.64979 34.0625 4.73305C34.1017 4.79497 34.1232 4.86656 34.1245 4.93987C34.1453 4.98121 34.2484 5.25033 34.2692 5.27062C34.2992 5.31034 34.3269 5.35178 34.3519 5.39484C34.3931 5.45695 34.4758 5.56022 34.4758 5.60166C34.4966 5.62243 34.4758 5.62243 34.4966 5.62243V5.72588C34.4758 5.72588 34.4553 5.70511 34.4346 5.70511C34.4057 5.70425 34.377 5.71143 34.3519 5.72588C34.3064 5.75507 34.2648 5.78981 34.2279 5.82934C34.2072 5.85001 34.2072 5.87068 34.2072 5.91212V6.0775C34.2072 6.09827 34.1865 6.09827 34.1659 6.11884C34.1404 6.14248 34.1194 6.17052 34.1039 6.20172C34.0583 6.24087 34.0229 6.29063 34.0006 6.34662C33.995 6.37552 33.9957 6.40528 34.0028 6.4339C34.0099 6.46251 34.0233 6.48912 34.042 6.51199C34.0433 6.5476 34.0363 6.58301 34.0212 6.61536C34.0069 6.67938 33.9861 6.74178 33.9592 6.80169C33.9309 6.89644 33.9101 6.99329 33.8973 7.09138C33.8765 7.13273 33.856 7.36031 33.8353 7.42214C33.8353 7.5255 33.856 7.7325 33.856 7.81519C33.856 7.8773 33.9592 8.14594 33.98 8.24988C34.0212 8.374 34.0627 8.53957 34.0832 8.60168C34.1039 8.68447 34.1659 8.8085 34.1865 8.91205C34.2566 9.06891 34.2986 9.23677 34.3104 9.40818C34.3104 9.42895 34.2898 9.49106 34.2898 9.51164C34.2898 9.53221 34.269 9.59442 34.269 9.61509V9.71845C34.269 9.73922 34.1863 9.90479 34.1863 9.94613C34.171 9.98556 34.1639 10.0279 34.1656 10.0703H34.1863C34.1863 10.0703 34.2071 10.0703 34.1863 10.091C34.1863 10.1118 34.1451 10.1531 34.1244 10.1945C34.1036 10.2358 34.1036 10.2565 34.083 10.2978C34.0777 10.3337 34.0851 10.3703 34.1038 10.4013C34.1038 10.4221 34.1451 10.4842 34.1451 10.5048V10.5461C34.1552 10.5655 34.1622 10.5865 34.1657 10.6082V10.6289C34.1545 10.6401 34.1473 10.6546 34.1451 10.6702C34.1464 10.6815 34.1453 10.6929 34.1417 10.7036C34.1382 10.7143 34.1322 10.7242 34.1244 10.7323C34.12 10.7606 34.113 10.7882 34.1036 10.8152C34.0955 10.8517 34.0815 10.8866 34.0624 10.9186C34.0351 10.9854 34.0143 11.0547 34.0004 11.1255C34.0004 11.1463 33.9797 11.1463 33.9797 11.1668C33.9589 11.1876 33.9589 11.2082 33.9383 11.2289C33.9179 11.2496 33.9383 11.2703 33.9383 11.291V11.3323C33.929 11.3818 33.9152 11.4303 33.8971 11.4773C33.8667 11.5715 33.8459 11.6685 33.8352 11.767C33.8132 11.8411 33.7994 11.9174 33.7938 11.9946V12.4497C33.7938 12.4705 33.7732 12.5326 33.7732 12.574V12.6361C33.7732 12.6568 33.7938 12.6981 33.7732 12.6981C33.7732 12.7189 33.7524 12.7189 33.7524 12.7394L33.6905 12.8015C33.6697 12.8223 33.6905 12.8637 33.6697 12.8844C33.649 12.9052 33.6697 12.9879 33.6697 12.9879V13.0291C33.6697 13.0499 33.6078 13.1326 33.6078 13.1741C33.6095 13.2165 33.6024 13.2587 33.587 13.2982C33.5663 13.3396 33.5458 13.3811 33.5663 13.4017C33.5663 13.4225 33.6076 13.4638 33.6076 13.4638V13.5052C33.6125 13.54 33.6194 13.5745 33.6284 13.6086V13.6293H33.5663C33.5456 13.6293 33.5251 13.6293 33.5251 13.6501V13.7535C33.5251 13.7743 33.4631 14.0843 33.4631 14.1467C33.4342 14.2623 33.4134 14.3798 33.4011 14.4984C33.3804 14.5605 33.3804 14.7054 33.3598 14.7881C33.3493 14.9205 33.3285 15.052 33.2978 15.1812C33.2726 15.2897 33.2588 15.4006 33.2565 15.512C33.2565 15.5948 33.2359 15.6773 33.2359 15.7189C33.2219 15.7897 33.2011 15.859 33.1739 15.9259C33.1567 15.9934 33.1497 16.0631 33.1531 16.1327C33.1531 16.1948 33.1324 16.2776 33.1324 16.3397C33.131 16.3972 33.1169 16.4537 33.0912 16.5051C33.0263 16.646 32.9176 16.7621 32.7812 16.8358C32.7382 16.8639 32.6878 16.8782 32.6366 16.8772C32.5933 16.8846 32.5515 16.8984 32.5126 16.9185C32.4713 16.9393 32.4093 16.9393 32.3678 16.9806C32.3265 17.022 32.3059 17.084 32.3266 17.084C32.3266 17.1048 32.3474 17.1253 32.3266 17.1461V17.1875C32.3377 17.1987 32.3522 17.206 32.3678 17.2082H22.0388L30.0958 23.168L27.0383 33.0802L35.3021 26.8513L43.6691 33.0802L40.5908 23.2714L48.648 17.2938ZM35.1989 7.48492C35.2151 7.48492 35.2312 7.4898 35.2448 7.49889C35.2584 7.50798 35.2689 7.5209 35.2752 7.53612C35.2815 7.55124 35.2831 7.56789 35.2799 7.58397C35.2768 7.60005 35.2688 7.61479 35.2573 7.62637C35.2458 7.63795 35.231 7.64579 35.2149 7.64905C35.199 7.65221 35.1823 7.65058 35.1672 7.64427C35.1521 7.63804 35.1391 7.62742 35.13 7.61383C35.121 7.60014 35.1161 7.58416 35.1161 7.5678C35.1176 7.54626 35.1267 7.52607 35.1419 7.51085C35.1571 7.49554 35.1773 7.48635 35.1989 7.48492ZM35.0338 6.82351C35.05 6.82351 35.066 6.82829 35.0797 6.83739C35.0933 6.84657 35.1038 6.85949 35.1101 6.87461C35.1164 6.88973 35.118 6.90639 35.1148 6.92247C35.1117 6.93855 35.1037 6.95329 35.0922 6.96487C35.0807 6.97645 35.0659 6.98439 35.0498 6.98754C35.0338 6.9907 35.0172 6.98908 35.0021 6.98286C34.987 6.97654 34.974 6.96592 34.965 6.95233C34.9559 6.93874 34.951 6.92266 34.951 6.90629C34.9496 6.895 34.9508 6.88361 34.9544 6.87289C34.9581 6.86217 34.9641 6.85231 34.972 6.84428C34.98 6.83624 34.9896 6.83002 35.0003 6.82619C35.0109 6.82236 35.0223 6.82102 35.0336 6.82226L35.0338 6.82351ZM34.8891 6.20258C34.9054 6.20258 34.9214 6.20746 34.935 6.21656C34.9486 6.22565 34.9592 6.23857 34.9654 6.25369C34.9717 6.26881 34.9734 6.28546 34.9701 6.30154C34.967 6.31762 34.9591 6.33236 34.9475 6.34403C34.936 6.35561 34.9212 6.36346 34.9051 6.36662C34.8892 6.36987 34.8725 6.36825 34.8574 6.36193C34.8423 6.35571 34.8293 6.34508 34.8203 6.3314C34.8112 6.31781 34.8064 6.30183 34.8064 6.28537C34.8076 6.26383 34.8167 6.24345 34.8319 6.22814C34.8471 6.21273 34.8675 6.20402 34.8891 6.20258ZM34.0006 16.2797C34.0006 16.2384 34.0214 16.2384 34.0627 16.1763C34.0833 16.1142 34.1039 16.0314 34.1247 15.9694C34.1454 15.9075 34.2898 15.4314 34.3106 15.3486C34.3315 15.2657 34.4139 14.8312 34.4346 14.7898C34.4553 14.7483 34.5173 14.2937 34.5378 14.2104C34.5633 14.109 34.5703 14.0038 34.5585 13.8999C34.5378 13.8999 34.5173 13.8999 34.5173 13.8792V13.8378H34.5999C34.6207 13.8378 34.5999 13.7965 34.6207 13.7757C34.6414 13.755 34.6414 13.6516 34.6414 13.6308C34.6414 13.6101 34.6622 13.61 34.6826 13.5895C34.7032 13.5689 34.7034 13.5481 34.724 13.5274C34.752 13.4979 34.7732 13.4626 34.7859 13.424C34.7859 13.4032 34.7652 13.3411 34.7652 13.3205C34.8303 13.2449 34.8858 13.1615 34.9303 13.0722C34.9698 12.9953 34.9911 12.9103 34.9923 12.8238C35.0034 12.8014 35.0173 12.7806 35.0336 12.7617C35.0626 12.7251 35.0837 12.6828 35.0956 12.6375C35.1375 12.559 35.1934 12.489 35.2607 12.4307C35.3226 12.3686 35.4466 12.1618 35.4879 12.1202C35.5291 12.0581 35.5291 12.0168 35.5499 12.0168C35.575 12.0598 35.6026 12.1013 35.6326 12.141C35.6533 12.1618 35.6738 12.2238 35.6945 12.2445C35.7344 12.3153 35.7624 12.3921 35.7773 12.472C35.7773 12.5134 35.9012 12.8028 35.9219 12.8652C35.9686 12.9794 36.0238 13.09 36.087 13.1959L36.1283 13.2373C36.1261 13.2536 36.1289 13.2702 36.1363 13.2849C36.1436 13.2998 36.1552 13.3119 36.1696 13.3201C36.1903 13.3408 36.1903 13.3614 36.2108 13.3822C36.2314 13.4029 36.2521 13.4029 36.2728 13.4235C36.2935 13.4441 36.2728 13.4443 36.2935 13.4443C36.3143 13.4443 36.3349 13.6097 36.3555 13.6305C36.3864 13.6493 36.423 13.6567 36.4588 13.6513C36.4795 13.6513 36.5 13.6513 36.5 13.672C36.5 13.6927 36.5208 13.7133 36.5208 13.7341C36.5208 13.7548 36.5621 13.7962 36.5621 13.817C36.5621 13.8377 36.5621 13.8377 36.5413 13.8377C36.5413 13.8584 36.5413 13.8584 36.5621 13.879C36.5949 13.9437 36.6158 14.0137 36.6241 14.0859C36.6241 14.1272 36.7892 14.6447 36.7892 14.6653V14.7274C36.7892 14.7482 36.8098 14.7687 36.8098 14.7895C36.8098 14.8102 36.8719 15.0171 36.8925 15.0999C36.9133 15.162 36.9752 15.5138 36.9958 15.596C37.0164 15.6782 37.037 15.8443 37.0578 15.9891C37.0596 16.0598 37.0894 16.1268 37.1405 16.1754C37.1292 16.1866 37.1219 16.201 37.1197 16.2167C37.1197 16.2375 37.0578 16.2996 37.0578 16.3821C37.0578 16.4442 37.0991 16.5063 37.0991 16.5475C37.0991 16.5886 37.0784 16.5683 37.0784 16.6096C37.0576 16.6304 37.0784 16.6509 37.0784 16.6924C37.0784 16.7339 37.0164 16.7753 36.9751 16.8374C36.9131 16.8994 36.8719 16.9615 36.81 17.0236C36.7775 17.0473 36.7429 17.0682 36.7068 17.0857C36.6686 17.1101 36.6395 17.1465 36.6241 17.1891C36.6033 17.2304 36.6241 17.2512 36.6241 17.272V17.3341H34.0832C34.1039 17.3341 34.0832 17.272 34.0832 17.2512V17.1271C34.0833 17.1243 34.0828 17.1215 34.0818 17.119C34.0808 17.1164 34.0792 17.1141 34.0773 17.1122C34.0754 17.1103 34.0731 17.1088 34.0705 17.1077C34.0679 17.1067 34.0652 17.1062 34.0625 17.1063C34.0769 17.0889 34.0843 17.0668 34.0832 17.0442C34.0832 17.0028 34.0625 16.7753 34.0625 16.7134C34.0671 16.6507 34.0601 16.5875 34.0418 16.5272C34.0418 16.4651 33.9798 16.4651 33.9798 16.4443C33.9738 16.3886 33.9808 16.3322 34.0006 16.2797ZM33.3601 17.2104C33.3808 17.2104 33.3601 17.2518 33.3601 17.2725V17.2933H33.2362C33.3189 17.273 33.3601 17.2317 33.3601 17.2104ZM14.6429 16.2797C14.6636 16.2796 14.6841 16.2751 14.703 16.2665C14.7218 16.2579 14.7387 16.2453 14.7523 16.2297C14.766 16.2141 14.7763 16.1957 14.7823 16.1758C14.7883 16.156 14.7901 16.135 14.7876 16.1143V15.6183C14.7876 12.0589 14.7876 11.3967 14.7462 10.6518C14.705 9.84478 14.519 9.47221 13.734 9.30673C13.4333 9.26022 13.1291 9.23945 12.8249 9.24462C12.5769 9.24462 12.4324 9.20328 12.4324 9.03781C12.4324 8.87224 12.5975 8.8307 12.9276 8.8307C14.1884 8.8307 15.6547 8.89282 16.2952 8.89282C16.853 8.89282 18.3404 8.8307 19.2495 8.8307C19.5796 8.8307 19.7447 8.87205 19.7447 9.03781C19.7447 9.20347 19.6 9.24462 19.3316 9.24462C19.1031 9.24922 18.8753 9.26998 18.6499 9.30673C18.0094 9.43086 17.8235 9.82401 17.7822 10.6518C17.741 11.3967 17.741 12.0589 17.741 15.6183V19.7362C17.741 21.8884 17.741 23.7502 17.8649 24.7441C17.9269 25.4055 18.0714 25.9237 18.774 26.0069C19.1713 26.0628 19.5713 26.0973 19.9723 26.1104C20.2202 26.1104 20.3442 26.1724 20.3442 26.2966C20.3442 26.462 20.1583 26.5242 19.869 26.5242C18.3403 26.5242 16.8734 26.4621 16.2123 26.4621C15.6751 26.4621 14.2084 26.5242 13.2787 26.5242C12.9485 26.5242 12.7834 26.4621 12.7834 26.2966C12.7834 26.1724 12.8867 26.1104 13.1553 26.1104C13.4412 26.1159 13.7263 26.0811 14.0024 26.0069C14.4776 25.9035 14.5808 25.4068 14.6841 24.7239C14.8081 23.7307 14.8081 21.8889 14.8081 19.7367V17.6663C14.8103 17.6467 14.8081 17.6268 14.8017 17.6083C14.7952 17.5896 14.7846 17.5728 14.7707 17.5588C14.7568 17.5449 14.7399 17.5343 14.7213 17.5278C14.7028 17.5213 14.683 17.5191 14.6634 17.5214H5.71771C5.6981 17.5188 5.67809 17.5208 5.65943 17.5272C5.64067 17.5335 5.62373 17.5441 5.60967 17.5581C5.59569 17.5722 5.58517 17.5892 5.57875 17.608C5.57244 17.6266 5.57043 17.6466 5.57301 17.6663V19.7357C5.57301 21.8878 5.57301 23.7497 5.69695 24.7435C5.75896 25.405 5.90367 25.923 6.60604 26.0064C7.0033 26.0622 7.40334 26.0967 7.80434 26.1097C8.05221 26.1097 8.17625 26.1718 8.17625 26.2961C8.17625 26.4613 7.9903 26.5236 7.70108 26.5236C6.17231 26.5236 4.70546 26.4615 4.04434 26.4615C3.50715 26.4615 2.0404 26.5236 1.09006 26.5236C0.78017 26.5236 0.614889 26.4615 0.614889 26.2961C0.614889 26.1718 0.718153 26.1097 0.986793 26.1097C1.27256 26.1153 1.55776 26.0805 1.83387 26.0064C2.30904 25.9029 2.4123 25.4062 2.51556 24.7234C2.6395 23.73 2.6395 21.8883 2.6395 19.7361V15.6175C2.6395 12.0581 2.6395 11.3959 2.59825 10.651C2.557 9.84401 2.37105 9.47144 1.5859 9.30597C1.2852 9.25946 0.981148 9.23869 0.676906 9.24386C0.428937 9.24386 0.284424 9.20251 0.284424 9.03704C0.284424 8.87147 0.449513 8.83003 0.77969 8.83003C2.0404 8.83003 3.50677 8.89205 4.14712 8.89205C4.70507 8.89205 6.19241 8.83003 7.10149 8.83003C7.43167 8.83003 7.59676 8.87138 7.59676 9.03704C7.59676 9.2027 7.45206 9.24386 7.18351 9.24386C6.95516 9.24845 6.72739 9.26922 6.50191 9.30597C5.86146 9.43009 5.67551 9.82325 5.63426 10.651C5.59292 11.3959 5.59292 12.0581 5.59292 15.6175V16.1137C5.59292 16.2378 5.65493 16.2789 5.73762 16.2789L14.6429 16.2797ZM54.66 9.11982C54.722 8.72667 54.8665 8.51967 55.0525 8.51967C55.2384 8.51967 55.3828 8.64389 55.6929 9.24405L62.0768 22.281L68.4404 9.07838C68.6263 8.70581 68.7503 8.51957 68.9568 8.51957C69.1633 8.51957 69.308 8.74715 69.3701 9.24386L71.4979 23.5846C71.7045 25.0538 71.9524 25.7368 72.6342 25.9436C73.1014 26.0946 73.5893 26.1714 74.0802 26.1714C74.2867 26.1714 74.4521 26.1921 74.4521 26.3367C74.4521 26.5231 74.1629 26.5851 73.8529 26.5851C73.2745 26.5851 70.031 26.5437 69.1013 26.461C68.5642 26.4196 68.4196 26.3367 68.4196 26.2126C68.4196 26.0884 68.5229 26.0263 68.6676 25.9643C68.8123 25.9229 68.8741 25.6124 68.7916 24.9502L67.3868 14.7483H67.3248L62.2219 25.1985C61.6847 26.2961 61.5615 26.5023 61.3542 26.5023C61.1469 26.5023 60.8997 26.0263 60.5278 25.3227C59.9694 24.2469 58.1101 20.6669 57.8408 20.0054C57.6342 19.5092 56.2294 16.7564 55.403 14.9976H55.2997L54.0809 24.1441C54.0407 24.5086 54.02 24.8749 54.0189 25.2416C54.0189 25.6968 54.3288 25.903 54.7213 25.9865C55.0453 26.0691 55.3785 26.1109 55.7129 26.1107C55.8989 26.1107 56.0641 26.152 56.0641 26.2761C56.0641 26.4831 55.8576 26.5244 55.5062 26.5244C54.5146 26.5244 53.461 26.4623 53.0478 26.4623C52.5934 26.4623 51.4778 26.5244 50.734 26.5244C50.5068 26.5244 50.3207 26.4831 50.3207 26.2761C50.3207 26.1518 50.4654 26.1107 50.6927 26.1107C50.9283 26.1143 51.1637 26.0935 51.3951 26.0486C52.0554 25.9037 52.2422 24.9932 52.3454 24.2067L54.66 9.11982ZM83.9759 15.6175C83.9759 12.0581 83.9759 11.3959 83.9347 10.651C83.8936 9.84401 83.6447 9.45077 83.1289 9.34731C82.8514 9.27984 82.5671 9.2451 82.2819 9.24386C82.0541 9.24386 81.9096 9.20251 81.9096 9.01627C81.9096 8.87138 82.0953 8.83003 82.4676 8.83003C83.3557 8.83003 84.8229 8.89205 85.5043 8.89205C86.0833 8.89205 87.4671 8.83003 88.3562 8.83003C88.6663 8.83003 88.851 8.87138 88.851 9.01627C88.851 9.20251 88.7065 9.24386 88.4797 9.24386C88.2443 9.24663 88.0088 9.2674 87.7772 9.30597C87.137 9.43009 86.9504 9.82325 86.9092 10.651C86.868 11.3959 86.868 12.0581 86.868 15.6175V19.7355C86.868 22.0118 86.868 23.8535 86.9714 24.8675C87.0336 25.509 87.1982 25.9229 87.9007 26.0057C88.2979 26.0616 88.6979 26.0961 89.0989 26.1091C89.3468 26.1091 89.4712 26.1713 89.4712 26.2954C89.4712 26.4608 89.2855 26.5231 89.0166 26.5231C87.4671 26.5231 86 26.461 85.3598 26.461C84.8229 26.461 83.3557 26.5231 82.4054 26.5231C82.0963 26.5231 81.9307 26.4609 81.9307 26.2954C81.9307 26.1713 82.034 26.1091 82.302 26.1091C82.5882 26.1147 82.8734 26.0799 83.15 26.0057C83.6246 25.9023 83.7491 25.5096 83.8314 24.8261C83.9548 23.8329 83.9548 21.9911 83.9548 19.7148V15.6175H83.9759ZM103.251 19.7562C103.251 22.7568 103.251 24.3716 103.746 24.7848C104.139 25.1366 104.758 25.3022 106.576 25.3022C107.816 25.3022 108.725 25.2814 109.304 24.6407C109.63 24.2368 109.838 23.7494 109.903 23.2335C109.923 23.0266 109.964 22.8817 110.151 22.8817C110.315 22.8817 110.337 23.006 110.337 23.2749C110.337 23.5232 110.172 25.2822 109.985 25.9651C109.841 26.4824 109.737 26.6066 108.518 26.6066C106.824 26.6066 105.626 26.5653 104.572 26.5445C103.519 26.5032 102.672 26.4824 101.721 26.4824C101.473 26.4824 100.957 26.4824 100.379 26.5032C99.8407 26.5032 99.2416 26.5445 98.7669 26.5445C98.4568 26.5445 98.2912 26.4824 98.2912 26.3169C98.2912 26.1927 98.3946 26.1307 98.6635 26.1307C98.9497 26.1362 99.2339 26.1014 99.5105 26.0272C99.9852 25.9238 100.089 25.4271 100.192 24.7442C100.316 23.751 100.316 21.9092 100.316 19.757V15.6383C100.316 12.0789 100.316 11.4167 100.275 10.6718C100.234 9.86478 100.047 9.49221 99.2626 9.32674C99.0109 9.28109 98.7544 9.26032 98.498 9.26463C98.2501 9.26463 98.1056 9.22328 98.1056 9.05771C98.1056 8.89224 98.2711 8.8509 98.6224 8.8509C99.7182 8.8509 101.204 8.91301 101.825 8.91301C102.383 8.91301 104.097 8.8509 105.007 8.8509C105.337 8.8509 105.502 8.89224 105.502 9.05771C105.502 9.22328 105.357 9.26463 105.088 9.26463C104.785 9.26539 104.48 9.28616 104.179 9.32674C103.539 9.45086 103.353 9.84401 103.312 10.6718C103.271 11.4167 103.271 12.0789 103.271 15.6383V19.7562H103.251ZM122.257 10.1339L118.766 10.2373C117.402 10.2786 116.845 10.4026 116.493 10.9201C116.318 11.1726 116.186 11.4522 116.101 11.7478C116.06 11.9341 115.977 12.0375 115.853 12.0375C115.688 12.0375 115.646 11.9134 115.646 11.6651C115.646 11.2925 116.101 9.16107 116.142 8.97474C116.204 8.66437 116.286 8.51957 116.431 8.51957C116.617 8.51957 116.844 8.74716 117.443 8.80927C118.125 8.87138 119.013 8.9334 119.778 8.9334H129.034C129.574 8.93952 130.113 8.89799 130.646 8.80927C130.997 8.74716 131.183 8.68504 131.286 8.68504C131.451 8.68504 131.472 8.83003 131.472 9.18117C131.472 9.6773 131.41 11.2919 131.41 11.8921C131.389 12.1197 131.348 12.2646 131.204 12.2646C131.017 12.2646 130.976 12.1404 130.956 11.7886L130.935 11.5403C130.894 10.9401 130.253 10.2775 128.166 10.2365L125.171 10.1331V19.7351C125.171 21.8873 125.171 23.749 125.295 24.7429C125.357 25.4044 125.502 25.9224 126.204 26.0057C126.601 26.0616 127.001 26.0961 127.402 26.1091C127.65 26.1091 127.774 26.1713 127.774 26.2954C127.774 26.4608 127.588 26.5231 127.32 26.5231C125.771 26.5231 124.303 26.461 123.642 26.461C123.105 26.461 121.638 26.5231 120.688 26.5231C120.379 26.5231 120.213 26.4609 120.213 26.2954C120.213 26.1713 120.316 26.1091 120.585 26.1091C120.871 26.1147 121.156 26.0799 121.432 26.0057C121.907 25.9023 122.032 25.4055 122.114 24.7228C122.238 23.7295 122.238 21.8878 122.238 19.7355V10.1335L122.257 10.1339ZM138.682 17.687C138.682 13.673 141.326 8.49899 148.35 8.49899C154.176 8.49899 157.812 11.8927 157.812 17.2731C157.812 22.6328 154.073 26.8751 148.123 26.8751C141.388 26.875 138.682 21.8257 138.682 17.687ZM154.507 18.1423C154.507 12.8861 151.49 9.6371 147.648 9.6371C144.962 9.6371 141.884 11.1271 141.884 16.9627C141.884 21.8464 144.57 25.6954 149.074 25.6954C150.726 25.6954 154.507 24.909 154.507 18.1423ZM169.774 23.3571C169.815 25.1781 170.125 25.799 170.6 25.9645C170.994 26.089 171.406 26.1449 171.819 26.1299C172.067 26.1299 172.212 26.1713 172.212 26.3162C172.212 26.5024 172.005 26.5437 171.675 26.5437C170.146 26.5437 169.216 26.4817 168.782 26.4817C168.576 26.4817 167.48 26.5437 166.262 26.5437C165.952 26.5437 165.745 26.5231 165.745 26.3162C165.745 26.1713 165.89 26.1299 166.117 26.1299C166.472 26.1385 166.828 26.0968 167.171 26.0057C167.77 25.8195 167.874 25.1366 167.894 23.1085L168.1 9.30597C168.1 8.83003 168.163 8.49899 168.41 8.49899C168.658 8.49899 168.885 8.80936 169.279 9.22328C169.568 9.53374 173.12 13.2792 176.53 16.673C178.121 18.2666 181.281 21.6395 181.674 22.0121H181.798L181.571 11.4997C181.55 10.0715 181.343 9.61653 180.765 9.38894C180.414 9.24405 179.856 9.24405 179.525 9.24405C179.236 9.24405 179.153 9.18194 179.153 9.03714C179.153 8.8509 179.401 8.83013 179.752 8.83013C180.972 8.83013 182.087 8.89224 182.583 8.89224C182.831 8.89224 183.719 8.83013 184.876 8.83013C185.185 8.83013 185.413 8.8509 185.413 9.03714C185.413 9.18213 185.269 9.24405 185 9.24405C184.764 9.23639 184.528 9.25725 184.297 9.30606C183.637 9.4924 183.45 9.98891 183.43 11.2927L183.182 26.0887C183.182 26.606 183.079 26.813 182.872 26.813C182.624 26.813 182.334 26.5647 182.066 26.2957C180.599 24.8885 177.604 21.8259 175.166 19.4048C172.625 16.8801 170.022 14.0244 169.589 13.5692H169.526L169.774 23.3571Z" fill="white"/>
</svg>
