<svg width="184" height="25" viewBox="0 0 184 25" fill="none" xmlns="http://www.w3.org/2000/svg">
<path d="M14.3577 2.7133C14.3577 0.731331 12.4689 0.23584 10.9779 0.23584V0.533136C11.8725 0.533136 12.5684 0.830432 12.5684 1.52412C12.5684 1.92052 12.2701 2.5151 11.3755 2.5151C10.6796 2.5151 9.18846 2.11871 8.09504 1.72232C6.80267 1.22683 5.60977 0.830431 4.61573 0.830431C2.62757 0.830431 1.2359 2.31691 1.2359 4.00158C1.2359 5.48806 2.32932 5.98355 2.72695 6.18175L2.82643 5.98356C2.62757 5.78536 2.32932 5.58716 2.32932 4.99257C2.32932 4.59618 2.72695 3.90248 3.72108 3.90248C4.61573 3.90248 5.80863 4.29888 7.39916 4.79437C8.79083 5.19077 10.282 5.48806 11.0772 5.58716V8.65921L9.5861 9.9475V10.0466L11.0772 11.3349V15.5961C10.282 16.0916 9.38733 16.1907 8.59206 16.1907C7.10091 16.1907 5.80863 15.7943 4.71512 14.6051L8.79083 12.6232V5.78536L3.82047 7.96552C4.2181 6.67724 5.31161 5.78536 6.40503 5.19077L6.30565 4.89347C3.32345 5.68626 0.639404 8.46102 0.639404 11.8304C0.639404 15.7943 3.91985 18.7673 7.59793 18.7673C11.5743 18.7673 14.1588 15.5961 14.1588 12.3259H13.9601C13.3636 13.6141 12.4689 14.8033 11.3755 15.3979V11.3349L12.9659 10.0466V9.9475L11.3755 8.65921V5.58716C12.8665 5.58716 14.3577 4.59617 14.3577 2.7133ZM5.70925 13.6141L4.51635 14.2087C3.82047 13.3168 3.42283 12.1277 3.42283 10.443C3.42283 9.7493 3.42283 8.95651 3.6217 8.36192L5.70925 7.47003V13.6141ZM16.2465 15.8934L14.9541 16.8844L15.153 17.0826L15.7494 16.5871L17.9364 18.5691L20.9186 16.5871L20.8192 16.3889L20.0239 16.8844L19.0298 15.8934V9.15471L19.8251 8.56012L21.515 9.9475V15.9925C21.515 19.7582 20.7197 20.3528 19.0298 20.9474V21.2447C21.8132 21.3438 24.3978 20.4519 24.3978 15.5961V9.05561L25.2925 8.36192L25.0937 8.16372L24.2984 8.75831L21.8132 6.67724L19.0298 8.75831V0.632234H18.831L15.3517 3.0106V3.20879C15.7494 3.40699 16.3459 3.60519 16.3459 4.69527L16.2465 15.8934ZM34.438 14.8033L31.9528 16.6862L29.4676 14.7042V13.515L34.1398 10.3439V10.2448L31.754 6.67724L26.5848 9.452V15.9925L25.5907 16.7853L25.7896 16.9835L26.6842 16.2898L30.064 18.7673L34.5374 15.1997L34.438 14.8033ZM29.4676 13.1186V8.26282L29.6664 8.16372L31.8534 11.6322L29.4676 13.1186ZM53.4248 1.82142C53.4248 1.52412 53.3254 1.22683 53.226 0.92953H53.0273C52.729 1.72232 52.3314 2.11871 51.3373 2.11871C50.4426 2.11871 49.8462 1.62322 49.4486 1.22683L46.5658 4.49708L46.7645 4.69527L47.7587 3.80339C48.3551 4.29888 48.8521 4.69527 50.2438 4.79437V13.0195L44.3787 3.0106C43.8817 2.21781 43.1858 1.12773 41.7942 1.12773C40.2036 1.12773 38.812 2.51511 39.0107 4.69527H39.309C39.4084 4.10068 39.7066 3.40699 40.4025 3.40699C40.8995 3.40699 41.3965 3.90249 41.6948 4.39798V7.66823C39.9054 7.66823 38.7125 8.46102 38.7125 9.9475C38.7125 10.7403 39.1101 11.9295 40.303 12.2268V12.0286C40.1042 11.8304 40.0049 11.6322 40.0049 11.3349C40.0049 10.8394 40.4025 10.443 41.0983 10.443H41.5954V14.6051C39.5078 14.6051 37.8178 15.7943 37.8178 17.7763C37.8178 19.6592 39.4084 20.551 41.1978 20.4519V20.2537C40.1042 20.1546 39.6072 19.6591 39.6072 18.9655C39.6072 18.0736 40.2036 17.6772 40.9989 17.6772C41.7942 17.6772 42.49 18.1727 42.9871 18.7673L45.8699 15.5961L45.6711 15.3979L44.9752 16.1907C43.8817 15.1997 43.2853 14.9024 41.993 14.7042V4.79437L49.9456 18.6682H50.542V4.79437C52.0331 4.69527 53.4248 3.50609 53.4248 1.82142ZM60.6816 14.8033L58.1964 16.6862L55.7112 14.7042V13.515L60.3834 10.3439V10.2448L57.9976 6.67724L52.8284 9.452V15.9925L51.8344 16.7853L52.0331 16.9835L52.9278 16.2898L56.3077 18.7673L60.7811 15.1997L60.6816 14.8033ZM55.7112 13.1186V8.26282L55.9101 8.16372L58.097 11.6322L55.7112 13.1186ZM76.885 7.76733L76.1892 8.26282L74.3005 6.67724L72.1134 8.65921L73.0081 9.5511V16.9835L70.6224 15.497V9.3529L71.4177 8.85741L69.1312 6.67724L66.9443 8.65921L67.839 9.5511V16.6862L67.5407 16.8844L65.4532 15.3979V9.452C65.4532 8.06462 64.7573 7.66823 63.962 7.17273C63.2662 6.67724 62.8686 6.37995 62.8686 5.68626C62.8686 5.09167 63.465 4.79437 63.7633 4.59617V4.39798C62.968 4.39798 60.8804 5.19076 60.8804 7.07364C60.8804 8.06462 61.3775 8.46102 61.8745 8.95651C62.3715 9.452 62.8686 9.84839 62.8686 10.7403V16.488L61.7751 17.2808L61.9739 17.479L62.968 16.6862L65.2543 18.6682L67.7396 16.9835L70.5229 18.6682L75.7915 15.5961V8.95651L77.0838 7.96552L76.885 7.76733ZM95.3752 2.31691L94.3804 3.20879L92.1936 1.22683L88.9138 3.60519V1.42502H88.6155L88.7146 17.479C88.4164 17.479 87.5217 17.2808 86.8261 17.0826L86.6269 3.70429C86.6269 2.7133 85.9313 1.32592 84.1418 1.32592C82.3523 1.32592 81.1593 2.7133 81.1593 4.10068H81.4576C81.5576 3.50609 81.8559 3.0106 82.4514 3.0106C83.0479 3.0106 83.5453 3.40699 83.5453 4.69527V8.56012C81.7558 8.65921 80.6625 9.6502 80.6625 10.9385C80.6625 11.7313 81.0602 12.9205 82.2532 12.9205V12.7223C81.8559 12.5241 81.7558 12.2268 81.7558 12.0286C81.7558 11.434 82.2532 11.2358 83.0479 11.2358H83.4462V17.3799C81.955 17.8754 81.3585 18.9655 81.3585 20.1546C81.3585 21.8393 82.6506 23.0285 84.6392 23.0285C86.0304 23.0285 87.2234 22.8303 88.4164 22.533C89.4102 22.3348 90.7023 22.0375 91.2988 22.0375C92.0945 22.0375 92.3927 22.4339 92.3927 22.9294C92.3927 23.6231 92.0945 23.9204 91.6971 24.0195V24.2177C93.2875 23.9204 94.2813 22.9294 94.2813 21.4429C94.2813 19.9564 92.7901 19.0646 91.1997 19.0646C90.4041 19.0646 88.7146 19.3619 87.5216 19.56C86.1295 19.8573 84.7383 20.0555 84.341 20.0555C83.6444 20.0555 82.8497 19.7582 82.8497 18.7673C82.8497 17.9745 83.5453 17.2808 85.2357 17.2808C86.1295 17.2808 87.2234 17.3799 88.3173 17.6772C89.5093 17.9745 90.6032 18.2718 91.5971 18.2718C93.0883 18.2718 94.3804 17.7763 94.3804 15.6952V3.50609L95.5734 2.5151L95.3752 2.31691ZM91.2988 8.36192C91.0006 8.65921 90.6032 8.95651 90.1058 8.95651C89.6094 8.95651 89.112 8.65921 88.9138 8.36192V4.00158L89.9076 3.30789L91.2988 4.59617V8.36192ZM91.2988 11.3349C91.1006 11.1367 90.6032 10.8394 90.1058 10.8394C89.6094 10.8394 89.112 11.1367 88.9138 11.3349V8.75831C89.112 8.95651 89.6094 9.25381 90.1058 9.25381C90.6032 9.25381 91.1006 8.95651 91.2988 8.75831V11.3349ZM91.2988 15.9925C91.2988 16.7853 90.8024 17.5781 89.7085 17.5781H88.9138V11.7313C89.112 11.5331 89.6094 11.2358 90.1058 11.2358C90.6032 11.2358 91.0006 11.5331 91.2988 11.7313V15.9925ZM104.918 8.95651L101.737 6.67724L96.8655 9.452V15.8934L95.8717 16.6862L95.9717 16.8844L96.7664 16.2898L99.948 18.6682L104.918 15.6952V8.95651ZM99.5497 15.1997V8.06462L102.035 9.8484V16.8844L99.5497 15.1997ZM114.362 6.87544H114.163C113.865 7.07364 113.566 7.27183 113.268 7.27183C112.871 7.27183 112.373 7.07364 112.174 6.77634H111.976L110.286 8.65921L108.596 6.77634L105.614 8.75831L105.713 8.95651L106.509 8.46102L107.502 9.5511V15.7943L106.21 16.7853L106.409 16.9835L107.006 16.488L109.391 18.47L112.473 16.3889L112.373 16.1907L111.479 16.6862L110.286 15.6952V8.75831C110.783 9.2538 111.38 9.7493 112.075 9.7493C113.467 9.8484 114.262 8.46102 114.362 6.87544ZM126.29 16.3889L122.91 18.6682L118.338 11.7313L121.618 6.67724H121.817C122.215 7.07364 122.811 7.47003 123.507 7.47003C124.203 7.47003 124.7 7.07364 124.998 6.67724H125.197C125.098 8.65921 123.706 9.8484 122.712 9.8484C121.718 9.8484 121.221 9.3529 120.624 9.05561L120.326 9.5511L125.296 16.8844L126.29 16.2898V16.3889ZM115.356 15.8934L114.064 16.8844L114.262 17.0826L114.859 16.5871L117.045 18.5691L120.028 16.5871L119.829 16.3889L119.034 16.8844L118.04 15.8934V0.632234H117.94L114.362 3.0106V3.20879C114.759 3.40699 115.356 3.50609 115.356 4.69527V15.8934ZM142.792 2.7133C142.792 0.731331 140.903 0.23584 139.412 0.23584V0.533136C140.307 0.533136 141.002 0.830432 141.002 1.52412C141.002 1.92052 140.705 2.5151 139.81 2.5151C139.114 2.5151 137.623 2.11871 136.53 1.72232C135.238 1.32592 134.045 0.92953 133.051 0.92953C131.062 0.92953 129.671 2.41601 129.671 4.10068C129.671 5.58716 130.764 6.08265 131.161 6.28085L131.261 6.08265C130.963 5.88445 130.665 5.68626 130.665 5.09167C130.665 4.69527 131.062 4.00158 132.056 4.00158C132.951 4.00158 134.144 4.39798 135.734 4.89347C137.126 5.28986 138.617 5.58716 139.412 5.68626V8.75831L137.921 10.0466V10.1457L139.412 11.434V15.6952C138.617 16.1907 137.723 16.2898 136.927 16.2898C135.436 16.2898 134.144 15.8934 133.051 14.7042L137.126 12.7223V5.78536L132.156 7.96552C132.652 6.67724 133.746 5.78536 134.74 5.09167L134.641 4.89347C131.659 5.68626 128.974 8.36192 128.974 11.7313C128.974 15.6952 132.255 18.6682 135.933 18.6682C139.91 18.6682 142.494 15.497 142.494 12.2268H142.296C141.699 13.515 140.804 14.7042 139.71 15.2988V11.2358L141.301 9.9475V9.8484L139.81 8.56012V5.58716C141.301 5.58716 142.792 4.59617 142.792 2.7133ZM134.144 13.6141L132.951 14.2087C132.255 13.3168 131.858 12.1277 131.858 10.443C131.858 9.7493 131.957 8.95651 132.156 8.36192L134.243 7.47003L134.144 13.6141ZM146.272 1.72232H146.172L144.184 3.40699V3.50609L145.874 5.38896H146.073L148.061 3.70429V3.60519L146.272 1.72232ZM149.253 16.3889L148.459 16.8844L147.465 15.8934V9.05561L148.459 8.36192L148.26 8.16372L147.564 8.75831L145.774 6.67724L142.892 8.65921L143.09 8.95651L143.787 8.46102L144.681 9.5511V15.9925L143.388 16.9835L143.488 17.1817L144.184 16.6862L146.371 18.6682L149.353 16.6862L149.253 16.3889ZM165.855 16.2898L165.159 16.7853L164.066 15.7943V9.05561L165.06 8.26282L164.86 8.06462L164.066 8.75831L161.779 6.67724L158.797 8.75831L156.51 6.67724L153.727 8.75831L151.938 6.67724L149.055 8.65921L149.154 8.95651L149.85 8.46102L150.845 9.5511V15.9925L150.049 16.7853L152.335 18.6682L154.523 16.6862L153.628 15.7943V9.05561L154.523 8.46102L156.013 9.8484V15.7943L155.218 16.5871L157.504 18.47L159.691 16.488L158.797 15.5961V9.05561L159.592 8.56012L161.182 9.9475V15.8934L160.487 16.5871L162.774 18.6682L165.855 16.5871V16.2898ZM174.503 14.8033L172.018 16.6862L169.533 14.7042V13.515L174.205 10.3439V10.2448L171.819 6.67724L166.65 9.452V16.1907L170.13 18.6682L174.603 15.1006L174.503 14.8033ZM169.533 13.1186V8.26282L169.731 8.16372L171.918 11.6322L169.533 13.1186ZM183.549 12.2268L181.66 10.7403C182.953 9.6502 183.45 8.16372 183.45 7.17273V6.57814H183.251C183.053 7.07364 182.654 7.56913 181.86 7.56913C181.064 7.56913 180.568 7.17273 180.07 6.57814L175.596 9.05561V12.6232L177.287 13.9114C175.596 15.3979 175.298 16.3889 175.298 17.1817C175.298 18.1727 175.796 18.8664 176.591 19.1637L176.69 18.9655C176.491 18.7673 176.293 18.6682 176.293 18.1727C176.293 17.8754 176.69 17.3799 177.486 17.3799C178.48 17.3799 179.076 18.0736 179.375 18.3709L183.649 15.7943V12.2268H183.549ZM182.456 9.25381C181.76 10.443 180.269 11.6322 179.375 12.2268L178.281 11.3349V7.86643C178.678 8.85741 179.772 9.6502 180.866 9.6502C181.561 9.6502 181.959 9.5511 182.456 9.25381ZM180.766 17.1817C180.269 16.0916 179.076 15.2988 177.883 15.2988C177.585 15.2988 176.789 15.2988 175.995 15.7943C176.491 15.0015 177.783 13.6141 179.474 12.6232L180.667 13.6141L180.766 17.1817Z" fill="white"/>
</svg>
