<svg width="142" height="47" viewBox="0 0 142 47" fill="none" xmlns="http://www.w3.org/2000/svg">
<path d="M0.563965 0.673952V14.1614H20.1405V46.831H33.8008V14.1614H26.974V0.673952H0.563965Z" fill="white"/>
<path d="M54.3344 0.67395H47.5077V7.41434H54.3344V0.67395Z" fill="white"/>
<path d="M33.8004 0.67395L26.974 0.673952L26.9736 7.41434H33.8004V0.67395Z" fill="white"/>
<path d="M40.6276 7.41444L33.8004 7.41434L33.8009 14.1547H40.6276V7.41444Z" fill="white"/>
<path d="M30.3796 10.7847H26.9662V14.1548H30.3796V10.7847Z" fill="white"/>
<path d="M47.4999 7.41444H44.0866V10.7846H47.4999V7.41444Z" fill="white"/>
<path d="M64.8054 13.2956H68.8934V23.586H71.7678V13.2956H75.8347V10.8512H64.8054V13.2956ZM128.365 10.8512H117.335V13.2956H121.423V23.586H124.297V13.2956H128.365V10.8512ZM100.086 10.8512L96.7476 16.0063L93.4081 10.8512H90.1432L95.31 18.837V23.586H98.1843V18.837L103.351 10.8512H100.086ZM83.2488 10.4116C79.4843 10.4116 76.4358 13.4221 76.4358 17.1387C76.4358 20.8552 79.4843 23.8657 83.2488 23.8657C87.0133 23.8657 90.0619 20.8552 90.0619 17.1387C90.0619 13.4287 87.0133 10.4116 83.2488 10.4116ZM83.2488 21.3747C81.124 21.3747 79.4039 19.4831 79.4039 17.1453C79.4039 14.8075 81.124 12.9159 83.2488 12.9159C85.3737 12.9159 87.0937 14.8141 87.0937 17.1453C87.0937 19.4764 85.3737 21.3747 83.2488 21.3747ZM110.137 10.4116C106.374 10.4116 103.324 13.4221 103.324 17.1387C103.324 20.8552 106.374 23.8657 110.137 23.8657C113.902 23.8657 116.951 20.8552 116.951 17.1387C116.951 13.4287 113.895 10.4116 110.137 10.4116ZM110.137 21.3747C108.012 21.3747 106.292 19.4831 106.292 17.1453C106.292 14.8075 108.012 12.9159 110.137 12.9159C112.263 12.9159 113.983 14.8141 113.983 17.1453C113.983 19.4764 112.255 21.3747 110.137 21.3747ZM136.71 10.8512H132.939L127.677 23.586H130.942L132.142 20.4755H137.512L138.713 23.586H141.978L136.71 10.8512ZM133.013 18.2177L134.827 13.5221L136.642 18.2177H133.013Z" fill="white"/>
<path d="M113.639 39.9241C111.23 39.9241 109.267 37.946 109.267 35.5083C109.267 33.0772 111.23 31.0924 113.639 31.0924C114.927 31.0924 116.142 31.6651 116.97 32.6576L116.269 33.2304C115.608 32.4444 114.65 31.9915 113.639 31.9915C111.729 31.9915 110.177 33.5701 110.177 35.5016C110.177 37.4331 111.729 39.0117 113.639 39.0117C114.65 39.0117 115.608 38.5588 116.269 37.7728L116.97 38.3456C116.142 39.358 114.92 39.9241 113.639 39.9241ZM68.725 39.9241C66.3158 39.9241 64.3532 37.946 64.3532 35.5083C64.3532 33.0772 66.3158 31.0924 68.725 31.0924C70.0133 31.0924 71.227 31.6651 72.0568 32.6576L71.3552 33.2304C70.6948 32.4444 69.7367 31.9915 68.725 31.9915C66.8154 31.9915 65.2639 33.5701 65.2639 35.5016C65.2639 37.4331 66.8154 39.0117 68.725 39.0117C69.7367 39.0117 70.7015 38.5588 71.3552 37.7728L72.0568 38.3456C71.2203 39.358 70.0066 39.9241 68.725 39.9241ZM137.269 39.9241C134.861 39.9241 132.897 37.946 132.897 35.5083C132.897 33.0772 134.861 31.0924 137.269 31.0924C138.572 31.0924 139.67 31.6518 140.48 32.7042V28.9944H141.391V39.4712H140.48V38.3123C139.67 39.3647 138.572 39.9241 137.269 39.9241ZM137.269 31.9982C135.36 31.9982 133.809 33.5768 133.809 35.5083C133.809 37.4397 135.36 39.0183 137.269 39.0183C139.09 39.0183 140.022 37.6329 140.48 36.4341V34.5824C140.022 33.3836 139.09 31.9982 137.269 31.9982ZM127.987 39.9241C125.693 39.9241 123.825 37.946 123.825 35.5083C123.825 33.0772 125.693 31.0924 127.987 31.0924C130.402 31.0924 131.899 33.1838 131.899 35.1153V35.5682H124.735C124.769 37.4731 126.213 39.0183 127.987 39.0183C128.938 39.0183 129.836 38.5721 130.456 37.7928L131.171 38.3456C130.374 39.3514 129.214 39.9241 127.987 39.9241ZM124.83 34.6757H130.955C130.752 33.317 129.659 31.9982 127.987 31.9982C126.463 31.9982 125.174 33.1438 124.83 34.6757ZM121.436 39.9241C120.02 39.9241 118.86 38.7585 118.86 37.3332V32.1781H117.733V31.2788H118.86V29.001H119.77V31.2788H122.651V32.1781H119.77V37.3332C119.77 38.2657 120.513 39.025 121.43 39.025C121.915 39.025 122.374 38.8118 122.691 38.4322L123.393 39.005C122.908 39.5911 122.192 39.9241 121.436 39.9241ZM104.464 39.9241C102.164 39.9241 100.295 37.946 100.295 35.5083C100.295 33.0772 102.164 31.0924 104.464 31.0924C106.879 31.0924 108.377 33.1838 108.377 35.1153V35.5682H101.213C101.246 37.4731 102.69 39.0183 104.464 39.0183C105.409 39.0183 106.312 38.5721 106.933 37.7928L107.648 38.3523C106.859 39.3514 105.699 39.9241 104.464 39.9241ZM101.307 34.6757H107.432C107.229 33.317 106.137 31.9982 104.464 31.9982C102.939 31.9982 101.658 33.1438 101.307 34.6757ZM76.8263 39.9241C74.4181 39.9241 72.455 37.946 72.455 35.5083C72.455 33.0772 74.4181 31.0924 76.8263 31.0924C79.2345 31.0924 81.1977 33.0705 81.1977 35.5083C81.1977 37.946 79.2345 39.9241 76.8263 39.9241ZM76.8263 31.9982C74.9168 31.9982 73.3652 33.5768 73.3652 35.5083C73.3652 37.4397 74.9168 39.0183 76.8263 39.0183C78.7359 39.0183 80.2864 37.4397 80.2864 35.5083C80.2864 33.5768 78.7282 31.9982 76.8263 31.9982ZM99.4047 39.4712H98.4944V35.5083C98.4944 33.5701 97.118 31.9982 95.4248 31.9982C93.7316 31.9982 92.3552 33.5768 92.3552 35.5083V39.4712H91.445V35.5083C91.445 33.0772 93.232 31.0924 95.4248 31.0924C97.6167 31.0924 99.4047 33.0705 99.4047 35.5083V39.4712ZM90.2169 39.4712H89.3057V35.5083C89.3057 33.5701 87.9303 31.9982 86.2371 31.9982C84.5439 31.9982 83.1675 33.5768 83.1675 35.5083V39.4712H82.2563V35.5083C82.2563 33.0772 84.0442 31.0924 86.2371 31.0924C88.429 31.0924 90.2169 33.0705 90.2169 35.5083V39.4712Z" fill="white"/>
</svg>
