<svg width="165" height="34" viewBox="0 0 165 34" fill="none" xmlns="http://www.w3.org/2000/svg">
<path d="M16.4499 11.1921L11.0435 27.0748L5.64007 11.1921H0.723389L8.32604 33.5227H13.7627L21.364 11.1921H16.4499Z" fill="white"/>
<path d="M23.5063 11.1921L21.8888 15.9488H25.2738V33.5227H29.8942V11.1921H23.5063Z" fill="white"/>
<path d="M46.4757 23.6996C45.9715 23.4401 45.2781 23.1201 44.5413 22.7827C43.3721 22.2799 42.2327 21.7065 41.1292 21.0656C40.345 20.5425 40.1062 19.8975 40.4711 19.2959C41.0252 18.3829 42.9446 17.8209 44.8161 18.9715C45.4225 19.3644 45.9723 19.843 46.4493 20.3933L46.5174 20.4698L49.3413 17.9208L49.2726 17.839C48.4535 16.877 47.4459 16.1042 46.316 15.5714C45.1863 15.0385 43.9598 14.7578 42.7171 14.7475C40.091 14.7475 37.1612 16.1486 36.5309 19.2771C36.0379 21.7282 37.4323 23.8391 40.3527 25.0695L43.96 26.7419C45.0122 27.2292 45.5719 27.9437 45.4584 28.653C45.3475 29.3408 44.6346 29.849 43.6418 29.9508C42.8046 30.0333 40.6508 29.9755 38.6753 27.6613L38.6072 27.5803L35.7833 30.1241L35.8463 30.2032C36.7023 31.2661 37.7676 32.1299 38.9719 32.7374C40.1762 33.345 41.492 33.6825 42.8324 33.7276H42.8368C46.9032 33.7276 48.8881 31.3526 49.3546 29.3188C49.8696 27.0644 48.74 24.8573 46.4745 23.6945" fill="white"/>
<path d="M62.2086 20.7158C62.2021 21.2317 62.0002 21.7247 61.646 22.0898C61.2917 22.4548 60.8131 22.6631 60.3119 22.6703H55.2427V18.7592H60.3119C60.8135 18.7664 61.2925 18.9748 61.6468 19.3403C62.0011 19.7059 62.2027 20.1994 62.2086 20.7158ZM60.3119 14.9824H51.5722V33.4998H55.2427V26.4452H60.3119C61.7887 26.4452 63.2051 25.8412 64.2494 24.7661C65.2937 23.691 65.8803 22.2329 65.8803 20.7125C65.8803 19.1921 65.2937 17.7339 64.2494 16.6588C63.2051 15.5838 61.7887 14.9798 60.3119 14.9798" fill="white"/>
<path d="M81.6547 24.2389C81.6547 25.3684 81.3297 26.4725 80.7199 27.4116C80.1101 28.3507 79.244 29.0826 78.2301 29.5149C77.2173 29.9471 76.1015 30.0602 75.0257 29.8398C73.949 29.6195 72.9609 29.0756 72.1853 28.277C71.4097 27.4783 70.8809 26.4608 70.6674 25.353C70.453 24.2453 70.5626 23.097 70.9828 22.0536C71.403 21.0101 72.1138 20.1182 73.0257 19.4907C73.9385 18.8632 75.0105 18.5282 76.1072 18.5282C77.5784 18.53 78.9886 19.1322 80.0282 20.2028C81.0677 21.2734 81.6528 22.7249 81.6547 24.2389ZM78.153 14.9825C76.8047 14.6702 75.405 14.6702 74.0557 14.9825C72.0195 15.4612 70.2005 16.6376 68.8984 18.3191C67.5959 20.0007 66.8865 22.0876 66.8865 24.2382C66.8865 26.3889 67.5959 28.4759 68.8984 30.1574C70.2005 31.839 72.0195 33.0154 74.0557 33.4941C74.7199 33.6485 75.3983 33.7277 76.0786 33.7303H76.1301C76.8104 33.7278 77.4888 33.6485 78.153 33.4941C80.1892 33.0154 82.0072 31.839 83.3098 30.1574C84.6123 28.4759 85.3222 26.3889 85.3222 24.2382C85.3222 22.0876 84.6123 20.0007 83.3098 18.3191C82.0072 16.6376 80.1901 15.4612 78.153 14.9825Z" fill="white"/>
<path d="M97.9959 20.7159C97.9893 21.2315 97.7873 21.7242 97.4338 22.0889C97.0793 22.4537 96.601 22.6616 96.0998 22.6685H91.0306V18.7619H96.0998C96.601 18.7689 97.0793 18.9771 97.4338 19.3422C97.7882 19.7071 97.9902 20.2 97.9959 20.7159ZM101.668 20.7159C101.667 19.196 101.08 17.7388 100.036 16.6639C98.9926 15.5891 97.5767 14.9844 96.1007 14.9825H87.3593V33.4999H91.0306V26.4453H93.5309L97.6119 33.4999H101.884L97.671 26.2124C98.823 25.8608 99.834 25.1361 100.554 24.1459C101.274 23.1557 101.665 21.9528 101.668 20.7159Z" fill="white"/>
<path d="M102.498 18.7592H107.317V33.4998H110.985V18.7592H115.804V14.9791H102.497L102.498 18.7592Z" fill="white"/>
<path d="M127.019 23.6996C126.515 23.4401 125.821 23.1201 125.084 22.7827C123.914 22.2799 122.776 21.7065 121.672 21.0656C120.888 20.5425 120.649 19.8975 121.014 19.2959C121.566 18.3829 123.487 17.8209 125.359 18.9715C125.965 19.3644 126.515 19.843 126.992 20.3933L127.06 20.4698L129.884 17.9208L129.815 17.839C128.996 16.877 127.989 16.1042 126.859 15.5714C125.728 15.0385 124.502 14.7578 123.26 14.7475C120.634 14.7475 117.704 16.1486 117.074 19.2771C116.58 21.7282 117.975 23.8391 120.897 25.0695L124.503 26.7419C125.555 27.2292 126.115 27.9437 126.002 28.653C125.89 29.3408 125.178 29.849 124.185 29.9508C123.348 30.0333 121.194 29.9755 119.219 27.6613L119.15 27.5803L116.327 30.1293L116.39 30.2085C117.245 31.2713 118.311 32.135 119.515 32.7426C120.719 33.3501 122.035 33.6877 123.376 33.7329H123.38C127.446 33.7329 129.431 31.3577 129.898 29.324C130.413 27.0695 129.284 24.8626 127.019 23.6996Z" fill="white"/>
<path d="M139.093 0.307373L164.611 28.4978V28.6413C164.619 29.6502 164.319 30.6362 163.754 31.4604C163.189 32.2845 162.386 32.9055 161.46 33.2358C160.942 33.4262 160.396 33.5239 159.846 33.5245C159.154 33.5008 158.474 33.3294 157.85 33.0215C157.225 32.7135 156.669 32.2756 156.218 31.7354L128.355 0.307373H139.093Z" fill="white"/>
<path d="M156.118 0.307373H164.611V22.148L156.118 12.7826V0.307373Z" fill="white"/>
</svg>
