<svg width="758" height="465" viewBox="0 0 758 465" fill="none" xmlns="http://www.w3.org/2000/svg">
<path d="M136.294 347.132L111.818 322.656C107.946 318.784 101.669 318.784 97.7969 322.656C93.9251 326.527 93.9251 332.805 97.7969 336.676L122.273 361.153C126.145 365.024 132.422 365.024 136.294 361.153C140.166 357.281 140.166 351.003 136.294 347.132Z" fill="#FC5D42"/>
<path d="M101.164 371.809L146.941 326.031C150.813 322.16 150.813 315.882 146.941 312.011C143.07 308.139 136.792 308.139 132.92 312.011L87.1433 357.788C83.2715 361.659 83.2715 367.937 87.1433 371.809C91.0151 375.68 97.2925 375.68 101.164 371.809Z" fill="#FC5D42"/>
<path d="M597.741 375.216C640.603 375.216 675.349 340.47 675.349 297.608C675.349 254.746 640.603 220 597.741 220C554.879 220 520.133 254.746 520.133 297.608C520.133 340.47 554.879 375.216 597.741 375.216Z" fill="#FC5D42"/>
<path d="M597.741 336.131C619.016 336.131 636.264 318.883 636.264 297.608C636.264 276.332 619.016 259.085 597.741 259.085C576.465 259.085 559.218 276.332 559.218 297.608C559.218 318.883 576.465 336.131 597.741 336.131Z" fill="white"/>
<path d="M656.234 374.089C658.307 373.427 660.405 373.074 662.478 373.002H640.133V395.181C640.533 385.748 646.715 377.135 656.229 374.089H656.234Z" fill="#8152E8"/>
<path d="M656.249 374.113C644.061 378.017 637.345 391.058 641.244 403.246C644.413 413.146 653.613 419.438 663.489 419.357C665.767 419.338 668.084 418.98 670.367 418.246C680.272 415.076 686.563 405.867 686.487 395.991C686.468 393.713 686.111 391.401 685.377 389.113C681.473 376.925 668.432 370.209 656.244 374.108L656.249 374.113Z" fill="#FF8E66"/>
<path d="M339.636 295.006C363.109 295.006 382.139 275.977 382.139 252.503C382.139 229.029 363.109 210 339.636 210C316.162 210 297.133 229.029 297.133 252.503C297.133 275.977 316.162 295.006 339.636 295.006Z" fill="#00E500"/>
<path d="M488.133 215.164V227.705C517.742 227.004 541.532 202.781 541.532 173H529.001C529.001 195.86 510.821 214.469 488.133 215.169V215.164Z" fill="#00E500"/>
<path d="M239.8 197C253.966 197 265.468 208.502 265.468 222.668V259.889H214.133V222.668C214.133 208.502 225.634 197 239.8 197V197Z" fill="#2448DE"/>
<path d="M214.133 259.889V297.173C214.133 300.967 217.212 304.046 221.006 304.046C224.8 304.046 227.879 300.967 227.879 297.173V259.889H214.133V259.889Z" fill="#2448DE"/>
<path d="M233.113 244.355V275.6C233.113 279.117 235.963 281.963 239.476 281.963C242.994 281.963 245.839 279.113 245.839 275.6V244.355H233.108H233.113Z" fill="#2448DE"/>
<path d="M227.875 247.082V293.222H233.113V247.082C233.113 245.633 231.94 244.46 230.491 244.46C229.042 244.46 227.87 245.633 227.87 247.082H227.875Z" fill="#020F30"/>
<path d="M245.844 238.13V293.117H251.083V238.13C251.083 236.681 249.91 235.509 248.461 235.509C247.012 235.509 245.84 236.681 245.84 238.13H245.844Z" fill="#020F30"/>
<path d="M265.468 222.11H258.28C254.31 222.11 251.092 225.327 251.092 229.298V259.012C251.092 262.983 254.31 266.2 258.28 266.2C262.251 266.2 265.468 262.983 265.468 259.012V222.105V222.11Z" fill="#2448DE"/>
<path d="M160.133 285.286C160.133 283.508 161.396 281.987 163.145 281.635C164.775 281.306 166.062 280.753 167.006 279.971C168.469 278.76 169.199 277.04 169.199 274.804C169.199 273.131 168.879 269.809 168.245 264.847C168.183 264.351 167.988 262.754 167.673 260.057C167.354 257.359 167.197 254.923 167.197 252.749C167.197 247.478 168.851 243.369 172.159 240.419C175.467 237.473 179.885 236 185.419 236H188.57C190.624 236 192.292 237.664 192.292 239.723V245.309C192.292 247.363 190.629 249.032 188.57 249.032C186.534 249.032 185.071 249.465 184.18 250.333C183.288 251.2 182.845 252.535 182.845 254.332C182.845 255.695 183.098 258.798 183.608 263.636C184.18 269.656 184.466 273.593 184.466 275.452C184.466 278.865 183.622 281.687 181.94 283.922C180.252 286.158 177.693 287.583 174.261 288.203V288.389C177.697 289.07 180.257 290.515 181.94 292.717C183.622 294.919 184.466 297.76 184.466 301.23C184.466 303.089 184.18 307.03 183.608 313.046C183.098 317.76 182.845 320.834 182.845 322.259C182.845 324.056 183.288 325.405 184.18 326.306C185.071 327.207 186.534 327.655 188.57 327.655C190.624 327.655 192.292 329.319 192.292 331.378V336.964C192.292 339.018 190.629 340.687 188.57 340.687H185.419C179.885 340.687 175.462 339.214 172.159 336.268C168.851 333.322 167.197 329.18 167.197 323.847C167.197 321.673 167.354 319.242 167.673 316.54C167.993 313.842 168.183 312.245 168.245 311.749C168.879 306.787 169.199 303.465 169.199 301.792C169.199 299.685 168.465 297.993 167.006 296.72C166.058 295.896 164.761 295.314 163.117 294.971C161.386 294.609 160.138 293.093 160.138 291.325V285.281L160.133 285.286Z" fill="#D2D5DD"/>
<path d="M595.204 177.117V140C507.004 140 435.264 210.454 433.181 298.153H470.316C472.385 230.954 527.505 177.117 595.204 177.117V177.117Z" fill="#6420C6"/>
<path d="M720.091 298.153C720.129 299.454 720.157 300.76 720.157 302.071C720.157 371.08 664.213 427.025 595.203 427.025V464.141C684.714 464.141 757.274 391.581 757.274 302.071C757.274 300.76 757.255 299.459 757.226 298.153H720.091V298.153Z" fill="#2448DE"/>
<path d="M470.25 302.071C470.25 300.76 470.278 299.454 470.316 298.153H433.18C433.152 299.454 433.133 300.76 433.133 302.071C433.133 391.581 505.693 464.141 595.203 464.141V427.025C526.194 427.025 470.25 371.08 470.25 302.071Z" fill="#CDDAFB"/>
<path d="M595.203 140H723.732C723.732 160.486 707.102 177.117 686.615 177.117H595.203V140Z" fill="#FF1C81"/>
<path d="M205.812 362.273C204.921 363.222 204.015 364.161 203.091 365.09C154.291 413.89 75.1766 413.89 26.3772 365.09L0.132812 391.335C63.4272 454.629 166.041 454.629 229.335 391.335C230.26 390.41 231.17 389.476 232.071 388.532L205.812 362.273V362.273Z" fill="#FF4F9D"/>
<path d="M232.076 388.532C232.967 387.584 233.873 386.645 234.797 385.715C283.597 336.916 362.711 336.916 411.511 385.715L437.755 359.471C374.461 296.176 271.847 296.176 208.553 359.471C207.628 360.395 206.718 361.33 205.817 362.273L232.076 388.532V388.532Z" fill="#FF4F9D"/>
<path d="M618.012 54.7726L601.407 60.4122C600.151 60.8389 599.479 62.2032 599.905 63.4595L619.406 120.873C619.833 122.129 621.197 122.802 622.453 122.375L639.057 116.735C640.314 116.309 640.986 114.944 640.56 113.688L621.059 56.2747C620.632 55.0184 619.268 54.3459 618.012 54.7726Z" fill="#6420C6"/>
<path d="M709.053 62.3064L707.852 61.1053C706.432 59.785 704.816 58.6315 703.009 57.6972C696.57 54.3797 689.244 54.6085 683.247 57.6591C681.651 52.1347 677.88 47.2491 672.361 44.4082C661.731 38.9315 648.671 43.1117 643.195 53.7458C642.537 55.0232 642.022 56.334 641.641 57.6591C633.356 53.436 623.623 55.0518 617.146 60.9957C616.731 61.3722 616.34 61.7726 615.954 62.1873C614.634 63.6077 613.475 65.2235 612.541 67.0348C608.266 75.3333 609.877 85.1094 615.84 91.6061C616.221 92.0208 616.621 92.4164 617.036 92.8025C618.456 94.1228 620.072 95.2811 621.883 96.2106C630.044 100.415 639.629 98.9275 646.126 93.2077C647.875 95.2144 650.02 96.9351 652.532 98.2316C661.579 102.893 672.38 100.553 678.776 93.2029C680.087 94.3564 681.551 95.3764 683.176 96.2106C691.474 100.486 701.251 98.8751 707.752 92.9122C708.167 92.5356 708.558 92.1352 708.944 91.7205C710.264 90.3001 711.422 88.6843 712.357 86.873C716.632 78.5745 715.026 68.7984 709.058 62.3017L709.053 62.3064Z" fill="#33CCFF"/>
<path d="M516.133 42.5124C539.613 42.5124 558.645 61.5451 558.645 85.0249C558.645 61.5451 577.678 42.5124 601.158 42.5124C577.678 42.5124 558.645 23.4798 558.645 0C558.645 23.4798 539.613 42.5124 516.133 42.5124Z" fill="#DFC12A"/>
<path d="M366.848 86H389.67C402.263 86 412.492 96.2242 412.492 108.822C412.492 121.42 402.268 131.644 389.67 131.644H366.848V86Z" fill="#6420C6"/>
<path d="M366.847 125.729C376.185 125.729 383.754 118.159 383.754 108.822C383.754 99.4845 376.185 91.915 366.847 91.915C357.51 91.915 349.94 99.4845 349.94 108.822C349.94 118.159 357.51 125.729 366.847 125.729Z" fill="#FF4F9D"/>
<path d="M596.133 177C596.133 243.845 650.323 298.036 717.169 298.036H721.02C718.951 230.838 663.831 177 596.133 177V177Z" fill="#FF8E66"/>
<path d="M531.802 94.3152L439.751 163.587C438.798 164.307 438.979 165.784 440.075 166.251L546.092 211.333C547.188 211.8 548.384 210.904 548.237 209.717L534.271 95.3638C534.128 94.177 532.755 93.5955 531.802 94.3152Z" fill="#33CCFF"/>
<path d="M466.961 120.653V55.9143C466.961 50.4388 462.523 46 457.047 46C451.572 46 447.133 50.4388 447.133 55.9143V120.653C447.133 126.128 451.572 130.567 457.047 130.567C462.523 130.567 466.961 126.128 466.961 120.653Z" fill="#FC5D42"/>
<path d="M497.133 138.653V73.9144C497.133 68.4388 492.694 64 487.218 64C481.743 64 477.304 68.4388 477.304 73.9144V138.653C477.304 144.129 481.743 148.567 487.218 148.567C492.694 148.567 497.133 144.129 497.133 138.653Z" fill="#FC5D42"/>
<path d="M433.02 298.153H470.156C468.078 210.454 396.332 140 308.133 140V177.117C375.831 177.117 430.951 230.959 433.02 298.153Z" fill="#8152E8"/>
<path d="M312.07 423.04V460.176C399.769 458.098 470.223 386.353 470.223 298.153H433.106C433.106 365.852 379.264 420.972 312.07 423.04Z" fill="#FFFF33"/>
<path d="M433.106 298.134C366.261 298.134 312.07 352.324 312.07 419.17V423.021C379.268 420.952 433.106 365.832 433.106 298.134Z" fill="#DFC12A"/>
</svg>
