<svg width="562" height="350" viewBox="0 0 562 350" fill="none" xmlns="http://www.w3.org/2000/svg">
<path d="M201.5 291.5C185.469 291.5 173.5 284 170.5 281C167.5 278 164.5 274.5 164.5 274.5C164.5 274.5 161.5 270.5 158 270.5C154.5 270.5 151 274.5 151 274.5C151 274.5 142.5 284 135.5 287.5C128.5 291 108.5 291 108.5 291L86.5 232.5C87.9583 235.839 96.0162 242.817 111 244C130 245.5 137 230 137 230C137 230 141.5 215.5 158.5 215.5C175.5 215.5 179 229 179 229C179 229 183.5 242 204 244C224.5 246 235.5 219 235.5 219C235.5 219 247.5 192.5 281 192.5C314.5 192.5 324 217 324 217C324 217 334.5 243.5 354.5 243.5C374.5 243.5 379.5 231.5 379.5 231.5C379.5 231.5 385.5 215 402.5 216C419.5 217 421.5 228 421.5 228C421.5 228 429.5 247.5 449.5 244C464.5 241.375 471.859 235.617 473.5 232.5L449 290.5C449 290.5 440 291.933 429 289C418 286.067 410.5 276.5 410.5 276.5C410.5 276.5 406 271.5 401.5 271.5C397 271.5 393 276.5 393 276.5C393 276.5 380.5 291.5 360 291.5C334 291.5 319.5 268 316.5 263C312 255.5 306 239.5 280 239.5C254 239.5 243.5 262 243.5 262C243.5 262 226.5 291.5 201.5 291.5Z" fill="white" stroke="black"/>
<path d="M1 1.5H43H75H107H113L136 66L154 113.5L171.5 160.5L179.5 180L181.5 183L183 185L184.5 186H186H188L189.5 185L190.5 182.5L193 176.5L197.5 165.5L203.5 151.5L210.5 133L218 113.5L226.5 94L235 72L248 41L257.5 18.5L264.5 9.5L271.5 4.5L279.5 1.5L289 4.5L298 9.5L303.5 18.5L313 41L325.5 72L334 94L342 113.5L349.5 133L357 151.5L364.5 170.5L368 180L370.5 184L372.5 186C372.5 186 373.414 186.5 374 186.5C374.781 186.5 376 186 376 186L377.5 183L379 180L383 170.5L390 151.5L397 133L405 113.5L411.5 94L419.5 72L428.5 47.5L435 27L441 10L444 1H561L515 118.5L471.5 237.5L470.812 239.166C470.807 239.176 470.802 239.186 470.797 239.195C469.156 242.312 464 248.875 449 251.5C429 255 421 235.5 421 235.5C421 235.5 419 224.5 402 223.5C385 222.5 379 239 379 239C379 239 374 251 354 251C334 251 323.5 224.5 323.5 224.5C323.5 224.5 314 200 280.5 200C247 200 235 226.5 235 226.5C235 226.5 224 253.5 203.5 251.5C183 249.5 178.5 236.5 178.5 236.5C178.5 236.5 175 223 158 223C141 223 136.5 237.5 136.5 237.5C136.5 237.5 129.5 253 110.5 251.5C95.5162 250.317 90.4832 242.293 89.0249 238.954C89.0096 238.919 88.9948 238.884 88.9803 238.85C88.6238 238.016 88.5 237.5 88.5 237.5L35.5 94L1 1.5Z" fill="#2D91B7"/>
<path d="M371.5 348.5C400 344.5 413.5 333 413.5 333C417.258 328.833 427.246 319.4 437.136 315C426.136 312.067 416 305.5 407.5 295C404.97 291.875 403 290 398.5 290C394 290 392.639 292.196 390 295C382 303.5 380.5 310 360 310C334 310 319.5 286.5 316.5 281.5C312 274 306 258 280 258C254 258 243.5 280.5 243.5 280.5C243.5 280.5 226.5 310 201.5 310C185.469 310 176.5 302.5 173.5 299.5C170.5 296.5 167.5 293 167.5 293C167.5 293 164.5 289 161 289C157 290 154 293 154 293C144 303 126.87 311.5 119.87 315C131.366 321.4 143.08 329.667 147.5 333C147.5 333 165.5 349 194 348.5C222.5 348 230.5 337 238.5 327.5C246.5 318 249.5 296 278.5 295C307.5 294 313 320 320 327.5L320.213 327.728C327.321 335.348 343.285 352.46 371.5 348.5Z" fill="#2D91B7"/>
<path d="M471.5 237.5L515 118.5L561 1H444L441 10L435 27L428.5 47.5L419.5 72L411.5 94L405 113.5L397 133L390 151.5L383 170.5L379 180L377.5 183L376 186C376 186 374.781 186.5 374 186.5C373.414 186.5 372.5 186 372.5 186L370.5 184L368 180L364.5 170.5L357 151.5L349.5 133L342 113.5L334 94L325.5 72L313 41L303.5 18.5L298 9.5L289 4.5L279.5 1.5L271.5 4.5L264.5 9.5L257.5 18.5L248 41L235 72L226.5 94L218 113.5L210.5 133L203.5 151.5L197.5 165.5L193 176.5L190.5 182.5L189.5 185L188 186H186H184.5L183 185L181.5 183L179.5 180L171.5 160.5L154 113.5L136 66L113 1.5H107H75H43H1L35.5 94L88.5 237.5M471.5 237.5C471.5 237.5 471.347 238.144 470.812 239.166M471.5 237.5L470.812 239.166M88.5 237.5C88.5 237.5 88.6238 238.016 88.9803 238.85C88.9948 238.884 89.0096 238.919 89.0249 238.954M88.5 237.5L89.0249 238.954M89.0249 238.954C90.4832 242.293 95.5162 250.317 110.5 251.5C129.5 253 136.5 237.5 136.5 237.5C136.5 237.5 141 223 158 223C175 223 178.5 236.5 178.5 236.5C178.5 236.5 183 249.5 203.5 251.5C224 253.5 235 226.5 235 226.5C235 226.5 247 200 280.5 200C314 200 323.5 224.5 323.5 224.5C323.5 224.5 334 251 354 251C374 251 379 239 379 239C379 239 385 222.5 402 223.5C419 224.5 421 235.5 421 235.5C421 235.5 429 255 449 251.5C464 248.875 469.156 242.312 470.797 239.195C470.802 239.186 470.807 239.176 470.812 239.166M320 327.5C313 320 307.5 294 278.5 295C249.5 296 246.5 318 238.5 327.5C230.5 337 222.5 348 194 348.5C165.5 349 147.5 333 147.5 333C143.08 329.667 131.366 321.4 119.87 315C126.87 311.5 144 303 154 293C154 293 157 290 161 289C164.5 289 167.5 293 167.5 293C167.5 293 170.5 296.5 173.5 299.5C176.5 302.5 185.469 310 201.5 310C226.5 310 243.5 280.5 243.5 280.5C243.5 280.5 254 258 280 258C306 258 312 274 316.5 281.5C319.5 286.5 334 310 360 310C380.5 310 382 303.5 390 295C392.639 292.196 394 290 398.5 290C403 290 404.97 291.875 407.5 295C416 305.5 426.136 312.067 437.136 315C427.246 319.4 417.258 328.833 413.5 333C413.5 333 400 344.5 371.5 348.5C343.285 352.46 327.321 335.348 320.213 327.728M320 327.5L320.213 327.728M320 327.5C320.07 327.575 320.141 327.651 320.213 327.728" stroke="black"/>
</svg>
