<svg width="914" height="211" viewBox="0 0 914 211" fill="none" xmlns="http://www.w3.org/2000/svg">
<path d="M354.5 29.5H332L364.5 118.5H385.5L401.5 67.5L420.5 118.5H441.5L474 29.5H451L431 85.5L411.5 29.5H392.5L374.5 85.5L354.5 29.5Z" fill="white"/>
<path d="M686 27H660.5L693.5 118.5H714L752 27H726.5L705.5 83L686 27Z" fill="white"/>
<path d="M875.5 118.5H806V27H875.5V47H828.5V64.5H875.5V83H828.5V99.5H875.5V118.5Z" fill="white"/>
<path fill-rule="evenodd" clip-rule="evenodd" d="M520.5 118.5H542L549.5 99.5H587L595 118.5H622L580.5 27H556.5L520.5 118.5ZM580.5 80.5H556.5L568 51L580.5 80.5Z" fill="white"/>
<path d="M354.5 29.5H332L364.5 118.5H385.5L401.5 67.5L420.5 118.5H441.5L474 29.5H451L431 85.5L411.5 29.5H392.5L374.5 85.5L354.5 29.5Z" stroke="black"/>
<path d="M686 27H660.5L693.5 118.5H714L752 27H726.5L705.5 83L686 27Z" stroke="black"/>
<path d="M875.5 118.5H806V27H875.5V47H828.5V64.5H875.5V83H828.5V99.5H875.5V118.5Z" stroke="black"/>
<path fill-rule="evenodd" clip-rule="evenodd" d="M520.5 118.5H542L549.5 99.5H587L595 118.5H622L580.5 27H556.5L520.5 118.5ZM580.5 80.5H556.5L568 51L580.5 80.5Z" stroke="black"/>
<path d="M611.64 182.172C609.24 182.172 607.032 181.608 605.016 180.48C603.024 179.352 601.44 177.792 600.264 175.8C599.088 173.808 598.5 170.564 598.5 168.068C598.5 165.572 599.088 163.328 600.264 161.336C601.44 159.344 603.024 157.796 605.016 156.692C607.032 155.564 609.24 155 611.64 155C614.04 155 616.236 155.564 618.228 156.692C620.22 157.796 621.792 159.344 622.944 161.336C624.12 163.328 624.708 165.572 624.708 168.068C624.708 170.564 624.12 173.808 622.944 175.8C621.792 177.792 620.208 179.352 618.192 180.48C616.2 181.608 614.016 182.172 611.64 182.172ZM611.64 174C613.224 174 614.636 173.508 615.5 172.5C616.364 171.468 617 169.796 617 168.068C617 166.316 616.364 164.508 615.5 163.5C614.636 162.468 613.224 162 611.64 162C610.032 162 608.364 162.468 607.5 163.5C606.636 164.508 606 166.316 606 168.068C606 169.796 606.636 171.468 607.5 172.5C608.364 173.508 610.032 174 611.64 174Z" fill="white"/>
<path d="M341 155H363V161H356V181H348V161H341V155Z" fill="white"/>
<path d="M391 155V181H408.5V176H398V171.5H408.5V166H398V161H408.5V155H391Z" fill="white"/>
<path d="M489 155H495.5V164.5H505V155H512V182H505V170.5H495.5V182H489V155Z" fill="white"/>
<path d="M543 155V181.5H550.5V167.5L560.5 182H566V155H559.5V169.5L550.5 155H543Z" fill="white"/>
<path d="M654.5 155.5V182H672V175.5H662V155.5H654.5Z" fill="white"/>
<path d="M817 155H809V182H817V155Z" fill="white"/>
<path d="M846 155H865V160.5H854V165H865V171H854V175.5H865V182H846V155Z" fill="white"/>
<path d="M714.64 182.172C712.24 182.172 710.032 181.608 708.016 180.48C706.024 179.352 704.44 177.792 703.264 175.8C702.088 173.808 701.5 170.564 701.5 168.068C701.5 165.572 702.088 163.328 703.264 161.336C704.44 159.344 706.024 157.796 708.016 156.692C710.032 155.564 712.24 155 714.64 155C717.04 155 719.236 155.564 721.228 156.692C723.22 157.796 724.792 159.344 725.944 161.336C727.12 163.328 727.708 165.572 727.708 168.068C727.708 170.564 727.12 173.808 725.944 175.8C724.792 177.792 723.208 179.352 721.192 180.48C719.2 181.608 717.016 182.172 714.64 182.172ZM714.64 174.24C716.224 174.24 717.636 173.508 718.5 172.5C719.364 171.468 720 169.796 720 168.068C720 166.316 719.364 164.508 718.5 163.5C717.636 162.468 716.224 162 714.64 162C713.032 162 711.364 162.468 710.5 163.5C709.636 164.508 709 166.316 709 168.068C709 169.796 709.636 171.468 710.5 172.5C711.364 173.508 713.032 174.24 714.64 174.24Z" fill="white"/>
<path d="M903 182C900.583 182 898.63 181.356 896.903 180.493C895.201 179.605 893.733 178.322 892.5 176.645L895.978 172.723C897.187 174.4 898.383 175.547 899.567 176.164C900.776 176.756 902.071 177.052 903.452 177.052C904.217 177.052 904.895 176.941 905.487 176.719C906.104 176.497 906.585 176.189 906.93 175.794C907.3 175.399 907.485 174.943 907.485 174.425C907.485 174.03 907.399 173.673 907.226 173.352C907.053 173.007 906.807 172.711 906.486 172.464C906.165 172.193 905.783 171.958 905.339 171.761C904.895 171.539 904.402 171.354 903.859 171.206C903.316 171.058 902.724 170.922 902.083 170.799C900.702 170.503 899.493 170.121 898.457 169.652C897.421 169.183 896.558 168.616 895.867 167.95C895.176 167.284 894.658 166.519 894.313 165.656C893.992 164.768 893.832 163.781 893.832 162.696C893.832 161.167 894.264 159.835 895.127 158.7C895.99 157.541 897.137 156.64 898.568 155.999C899.999 155.333 901.577 155 903.304 155C905.647 155 907.571 155.395 909.076 156.184C910.605 156.973 911.826 158.083 912.739 159.514L909.187 162.992C908.422 161.931 907.547 161.13 906.56 160.587C905.573 160.044 904.513 159.773 903.378 159.773C902.589 159.773 901.886 159.884 901.269 160.106C900.677 160.303 900.221 160.612 899.9 161.031C899.579 161.426 899.419 161.894 899.419 162.437C899.419 162.881 899.53 163.276 899.752 163.621C899.974 163.966 900.282 164.275 900.677 164.546C901.096 164.793 901.602 165.015 902.194 165.212C902.786 165.409 903.44 165.57 904.155 165.693C905.512 165.964 906.733 166.334 907.818 166.803C908.903 167.247 909.828 167.79 910.593 168.431C911.382 169.072 911.987 169.812 912.406 170.651C912.825 171.49 913.035 172.427 913.035 173.463C913.035 175.214 912.616 176.707 911.777 177.94C910.938 179.173 909.779 180.123 908.299 180.789C906.819 181.455 904.973 182 903 182Z" fill="white"/>
<path d="M449.622 182C447.708 182 445.944 181.675 444.328 181.026C442.738 180.352 441.346 179.416 440.153 178.218C438.985 176.994 438.078 175.559 437.432 173.911C436.811 172.264 436.5 170.454 436.5 168.481C436.5 166.559 436.835 164.786 437.506 163.164C438.177 161.516 439.122 160.08 440.34 158.857C441.557 157.634 442.974 156.685 444.589 156.011C446.229 155.337 448.006 155 449.92 155C451.162 155 452.38 155.175 453.573 155.524C454.791 155.849 455.897 156.348 456.891 157.022C457.91 157.671 458.779 158.433 459.5 159.307L455.996 163.239C455.126 162.29 454.182 161.566 453.163 161.067C452.144 160.567 451.051 160.318 449.882 160.318C448.814 160.318 447.807 160.517 446.863 160.917C445.944 161.291 445.136 161.841 444.44 162.564C443.744 163.288 443.197 164.15 442.8 165.148C442.402 166.147 442.203 167.258 442.203 168.481C442.203 169.73 442.39 170.865 442.763 171.889C443.16 172.888 443.719 173.749 444.44 174.473C445.161 175.172 446.018 175.721 447.012 176.121C448.031 176.495 449.149 176.682 450.367 176.682C451.162 176.682 451.92 176.57 452.641 176.345C453.387 176.121 454.082 175.809 454.729 175.409C455.375 175.01 455.946 174.548 456.443 174.024L459.165 178.405C458.593 179.079 457.798 179.691 456.779 180.24C455.76 180.789 454.629 181.226 453.387 181.551C452.144 181.85 450.889 182 449.622 182Z" fill="white"/>
<path d="M771.172 182.172C769.149 182.172 767.053 181.529 765.4 180.863C763.747 180.197 762.428 179.075 761.219 177.866C760.01 176.657 759.073 175.239 758.407 173.611C757.766 171.983 757.445 170.219 757.445 168.32C757.445 166.421 757.778 164.657 758.444 163.029C759.135 161.401 760.097 159.995 761.33 158.811C762.588 157.602 764.056 156.665 765.733 155.999C767.41 155.333 769.248 155 771.246 155C772.627 155 773.947 155.185 775.205 155.555C776.463 155.925 777.61 156.431 778.646 157.072C779.682 157.713 780.533 158.453 781.199 159.292L777.758 162.918C776.796 162.005 775.772 161.302 774.687 160.809C773.602 160.291 772.43 160.032 771.172 160.032C770.013 160.032 768.94 160.242 767.953 160.661C766.991 161.056 766.14 161.635 765.4 162.4C764.685 163.14 764.117 164.016 763.698 165.027C763.303 166.038 763.106 167.136 763.106 168.32C763.106 169.479 763.316 170.565 763.735 171.576C764.179 172.587 764.771 173.475 765.511 174.24C766.276 174.98 767.164 175.572 768.175 176.016C769.186 176.435 770.272 176.645 771.431 176.645C772.245 176.645 773.01 176.522 773.725 176.275C774.465 176.004 775.106 175.646 775.649 175.202C776.216 174.758 776.66 174.24 776.981 173.648C777.302 173.056 777.462 172.415 777.462 171.724L770.839 171.872V167.21H782.753C782.802 167.481 782.839 167.814 782.864 168.209C782.889 168.604 782.901 168.986 782.901 169.356C782.926 169.726 782.938 170.034 782.938 170.281C782.938 171.958 782.642 173.5 782.05 174.906C781.458 176.287 780.619 177.484 779.534 178.495C778.449 179.506 777.955 180.296 776.5 180.863C775.045 181.406 772.849 182.172 771.172 182.172Z" fill="white"/>
<path d="M611.64 182.172C609.24 182.172 607.032 181.608 605.016 180.48C603.024 179.352 601.44 177.792 600.264 175.8C599.088 173.808 598.5 170.564 598.5 168.068C598.5 165.572 599.088 163.328 600.264 161.336C601.44 159.344 603.024 157.796 605.016 156.692C607.032 155.564 609.24 155 611.64 155C614.04 155 616.236 155.564 618.228 156.692C620.22 157.796 621.792 159.344 622.944 161.336C624.12 163.328 624.708 165.572 624.708 168.068C624.708 170.564 624.12 173.808 622.944 175.8C621.792 177.792 620.208 179.352 618.192 180.48C616.2 181.608 614.016 182.172 611.64 182.172ZM611.64 174C613.224 174 614.636 173.508 615.5 172.5C616.364 171.468 617 169.796 617 168.068C617 166.316 616.364 164.508 615.5 163.5C614.636 162.468 613.224 162 611.64 162C610.032 162 608.364 162.468 607.5 163.5C606.636 164.508 606 166.316 606 168.068C606 169.796 606.636 171.468 607.5 172.5C608.364 173.508 610.032 174 611.64 174Z" stroke="black"/>
<path d="M341 155H363V161H356V181H348V161H341V155Z" stroke="black"/>
<path d="M391 155V181H408.5V176H398V171.5H408.5V166H398V161H408.5V155H391Z" stroke="black"/>
<path d="M489 155H495.5V164.5H505V155H512V182H505V170.5H495.5V182H489V155Z" stroke="black"/>
<path d="M543 155V181.5H550.5V167.5L560.5 182H566V155H559.5V169.5L550.5 155H543Z" stroke="black"/>
<path d="M654.5 155.5V182H672V175.5H662V155.5H654.5Z" stroke="black"/>
<path d="M817 155H809V182H817V155Z" stroke="black"/>
<path d="M846 155H865V160.5H854V165H865V171H854V175.5H865V182H846V155Z" stroke="black"/>
<path d="M714.64 182.172C712.24 182.172 710.032 181.608 708.016 180.48C706.024 179.352 704.44 177.792 703.264 175.8C702.088 173.808 701.5 170.564 701.5 168.068C701.5 165.572 702.088 163.328 703.264 161.336C704.44 159.344 706.024 157.796 708.016 156.692C710.032 155.564 712.24 155 714.64 155C717.04 155 719.236 155.564 721.228 156.692C723.22 157.796 724.792 159.344 725.944 161.336C727.12 163.328 727.708 165.572 727.708 168.068C727.708 170.564 727.12 173.808 725.944 175.8C724.792 177.792 723.208 179.352 721.192 180.48C719.2 181.608 717.016 182.172 714.64 182.172ZM714.64 174.24C716.224 174.24 717.636 173.508 718.5 172.5C719.364 171.468 720 169.796 720 168.068C720 166.316 719.364 164.508 718.5 163.5C717.636 162.468 716.224 162 714.64 162C713.032 162 711.364 162.468 710.5 163.5C709.636 164.508 709 166.316 709 168.068C709 169.796 709.636 171.468 710.5 172.5C711.364 173.508 713.032 174.24 714.64 174.24Z" stroke="black"/>
<path d="M903 182C900.583 182 898.63 181.356 896.903 180.493C895.201 179.605 893.733 178.322 892.5 176.645L895.978 172.723C897.187 174.4 898.383 175.547 899.567 176.164C900.776 176.756 902.071 177.052 903.452 177.052C904.217 177.052 904.895 176.941 905.487 176.719C906.104 176.497 906.585 176.189 906.93 175.794C907.3 175.399 907.485 174.943 907.485 174.425C907.485 174.03 907.399 173.673 907.226 173.352C907.053 173.007 906.807 172.711 906.486 172.464C906.165 172.193 905.783 171.958 905.339 171.761C904.895 171.539 904.402 171.354 903.859 171.206C903.316 171.058 902.724 170.922 902.083 170.799C900.702 170.503 899.493 170.121 898.457 169.652C897.421 169.183 896.558 168.616 895.867 167.95C895.176 167.284 894.658 166.519 894.313 165.656C893.992 164.768 893.832 163.781 893.832 162.696C893.832 161.167 894.264 159.835 895.127 158.7C895.99 157.541 897.137 156.64 898.568 155.999C899.999 155.333 901.577 155 903.304 155C905.647 155 907.571 155.395 909.076 156.184C910.605 156.973 911.826 158.083 912.739 159.514L909.187 162.992C908.422 161.931 907.547 161.13 906.56 160.587C905.573 160.044 904.513 159.773 903.378 159.773C902.589 159.773 901.886 159.884 901.269 160.106C900.677 160.303 900.221 160.612 899.9 161.031C899.579 161.426 899.419 161.894 899.419 162.437C899.419 162.881 899.53 163.276 899.752 163.621C899.974 163.966 900.282 164.275 900.677 164.546C901.096 164.793 901.602 165.015 902.194 165.212C902.786 165.409 903.44 165.57 904.155 165.693C905.512 165.964 906.733 166.334 907.818 166.803C908.903 167.247 909.828 167.79 910.593 168.431C911.382 169.072 911.987 169.812 912.406 170.651C912.825 171.49 913.035 172.427 913.035 173.463C913.035 175.214 912.616 176.707 911.777 177.94C910.938 179.173 909.779 180.123 908.299 180.789C906.819 181.455 904.973 182 903 182Z" stroke="black"/>
<path d="M449.622 182C447.708 182 445.944 181.675 444.328 181.026C442.738 180.352 441.346 179.416 440.153 178.218C438.985 176.994 438.078 175.559 437.432 173.911C436.811 172.264 436.5 170.454 436.5 168.481C436.5 166.559 436.835 164.786 437.506 163.164C438.177 161.516 439.122 160.08 440.34 158.857C441.557 157.634 442.974 156.685 444.589 156.011C446.229 155.337 448.006 155 449.92 155C451.162 155 452.38 155.175 453.573 155.524C454.791 155.849 455.897 156.348 456.891 157.022C457.91 157.671 458.779 158.433 459.5 159.307L455.996 163.239C455.126 162.29 454.182 161.566 453.163 161.067C452.144 160.567 451.051 160.318 449.882 160.318C448.814 160.318 447.807 160.517 446.863 160.917C445.944 161.291 445.136 161.841 444.44 162.564C443.744 163.288 443.197 164.15 442.8 165.148C442.402 166.147 442.203 167.258 442.203 168.481C442.203 169.73 442.39 170.865 442.763 171.889C443.16 172.888 443.719 173.749 444.44 174.473C445.161 175.172 446.018 175.721 447.012 176.121C448.031 176.495 449.149 176.682 450.367 176.682C451.162 176.682 451.92 176.57 452.641 176.345C453.387 176.121 454.082 175.809 454.729 175.409C455.375 175.01 455.946 174.548 456.443 174.024L459.165 178.405C458.593 179.079 457.798 179.691 456.779 180.24C455.76 180.789 454.629 181.226 453.387 181.551C452.144 181.85 450.889 182 449.622 182Z" stroke="black"/>
<path d="M771.172 182.172C769.149 182.172 767.053 181.529 765.4 180.863C763.747 180.197 762.428 179.075 761.219 177.866C760.01 176.657 759.073 175.239 758.407 173.611C757.766 171.983 757.445 170.219 757.445 168.32C757.445 166.421 757.778 164.657 758.444 163.029C759.135 161.401 760.097 159.995 761.33 158.811C762.588 157.602 764.056 156.665 765.733 155.999C767.41 155.333 769.248 155 771.246 155C772.627 155 773.947 155.185 775.205 155.555C776.463 155.925 777.61 156.431 778.646 157.072C779.682 157.713 780.533 158.453 781.199 159.292L777.758 162.918C776.796 162.005 775.772 161.302 774.687 160.809C773.602 160.291 772.43 160.032 771.172 160.032C770.013 160.032 768.94 160.242 767.953 160.661C766.991 161.056 766.14 161.635 765.4 162.4C764.685 163.14 764.117 164.016 763.698 165.027C763.303 166.038 763.106 167.136 763.106 168.32C763.106 169.479 763.316 170.565 763.735 171.576C764.179 172.587 764.771 173.475 765.511 174.24C766.276 174.98 767.164 175.572 768.175 176.016C769.186 176.435 770.272 176.645 771.431 176.645C772.245 176.645 773.01 176.522 773.725 176.275C774.465 176.004 775.106 175.646 775.649 175.202C776.216 174.758 776.66 174.24 776.981 173.648C777.302 173.056 777.462 172.415 777.462 171.724L770.839 171.872V167.21H782.753C782.802 167.481 782.839 167.814 782.864 168.209C782.889 168.604 782.901 168.986 782.901 169.356C782.926 169.726 782.938 170.034 782.938 170.281C782.938 171.958 782.642 173.5 782.05 174.906C781.458 176.287 780.619 177.484 779.534 178.495C778.449 179.506 777.955 180.296 776.5 180.863C775.045 181.406 772.849 182.172 771.172 182.172Z" stroke="black"/>
<path d="M116.725 175.424C107.472 175.424 100.564 170.92 98.8322 169.119C97.1007 167.318 95.3691 165.216 95.3691 165.216C95.3691 165.216 93.6376 162.815 91.6175 162.815C89.5974 162.815 87.5772 165.216 87.5772 165.216C87.5772 165.216 82.6712 170.92 78.6309 173.022C74.5907 175.123 63.0471 175.123 63.0471 175.123L50.3491 139.998C51.1908 142.004 55.8417 146.193 64.49 146.903C75.4564 147.804 79.4967 138.497 79.4967 138.497C79.4967 138.497 82.094 129.791 91.9061 129.791C101.718 129.791 103.738 137.897 103.738 137.897C103.738 137.897 106.336 145.703 118.168 146.903C130 148.104 136.349 131.893 136.349 131.893C136.349 131.893 143.275 115.981 162.611 115.981C181.946 115.981 187.429 130.692 187.429 130.692C187.429 130.692 193.49 146.603 205.033 146.603C216.577 146.603 219.463 139.398 219.463 139.398C219.463 139.398 222.926 129.491 232.738 130.091C242.55 130.692 243.704 137.297 243.704 137.297C243.704 137.297 248.322 149.005 259.865 146.903C268.523 145.327 272.771 141.87 273.718 139.998L259.577 174.823C259.577 174.823 254.382 175.684 248.033 173.922C241.684 172.161 237.355 166.417 237.355 166.417C237.355 166.417 234.758 163.415 232.161 163.415C229.563 163.415 227.255 166.417 227.255 166.417C227.255 166.417 220.04 175.424 208.208 175.424C193.201 175.424 184.832 161.314 183.1 158.311C180.503 153.808 177.04 144.201 162.033 144.201C147.027 144.201 140.966 157.711 140.966 157.711C140.966 157.711 131.154 175.424 116.725 175.424Z" fill="white" stroke="black"/>
<path d="M1 1.30021H25.2416H43.7113H62.1811H65.6441L78.9193 40.0277L89.3085 68.5479L99.4092 96.7679L104.027 108.476L105.181 110.277L106.047 111.478L106.913 112.079H107.778H108.933L109.798 111.478L110.376 109.977L111.819 106.375L114.416 99.77L117.879 91.364L121.919 80.2562L126.248 68.5479L131.154 56.8396L136.06 43.6302L143.563 25.017L149.047 11.5074L153.087 6.10362L157.127 3.10149L161.745 1.30021L167.228 3.10149L172.422 6.10362L175.597 11.5074L181.08 25.017L188.295 43.6302L193.201 56.8396L197.818 68.5479L202.147 80.2562L206.476 91.364L210.805 102.772L212.825 108.476L214.268 110.878L215.422 112.079C215.422 112.079 215.95 112.379 216.288 112.379C216.739 112.379 217.442 112.079 217.442 112.079L218.308 110.277L219.174 108.476L221.483 102.772L225.523 91.364L229.563 80.2562L234.181 68.5479L237.932 56.8396L242.55 43.6302L247.744 28.9198L251.496 16.6111L254.959 6.40383L256.691 1H324.221L297.67 71.55L272.563 143.001L272.166 144.001C272.163 144.007 272.16 144.013 272.157 144.019C271.21 145.89 268.234 149.83 259.577 151.407C248.033 153.508 243.416 141.8 243.416 141.8C243.416 141.8 242.261 135.195 232.449 134.595C222.637 133.994 219.174 143.901 219.174 143.901C219.174 143.901 216.288 151.106 204.744 151.106C193.201 151.106 187.141 135.195 187.141 135.195C187.141 135.195 181.657 120.485 162.322 120.485C142.986 120.485 136.06 136.396 136.06 136.396C136.06 136.396 129.711 152.607 117.879 151.407C106.047 150.206 103.449 142.4 103.449 142.4C103.449 142.4 101.429 134.294 91.6172 134.294C81.8052 134.294 79.2079 143.001 79.2079 143.001C79.2079 143.001 75.1676 152.307 64.2012 151.407C55.5529 150.696 52.6479 145.878 51.8062 143.873C51.7974 143.852 51.7888 143.832 51.7804 143.811C51.5747 143.31 51.5032 143.001 51.5032 143.001L20.9127 56.8396L1 1.30021Z" fill="#2D91B7"/>
<path d="M214.845 209.648C231.295 207.246 239.087 200.341 239.087 200.341C241.255 197.839 247.02 192.175 252.729 189.534C246.38 187.772 240.53 183.83 235.624 177.525C234.163 175.649 233.026 174.523 230.429 174.523C227.832 174.523 227.046 175.841 225.523 177.525C220.906 182.629 220.04 186.531 208.207 186.531C193.201 186.531 184.832 172.421 183.1 169.419C180.503 164.916 177.04 155.309 162.033 155.309C147.026 155.309 140.966 168.819 140.966 168.819C140.966 168.819 131.154 186.531 116.725 186.531C107.472 186.531 102.295 182.028 100.563 180.227C98.8319 178.426 97.1004 176.324 97.1004 176.324C97.1004 176.324 95.3689 173.923 93.3487 173.923C91.0401 174.523 89.3085 176.324 89.3085 176.324C83.5367 182.328 73.6497 187.432 69.6094 189.534C76.2448 193.376 83.0057 198.34 85.5568 200.341C85.5568 200.341 95.946 209.948 112.396 209.648C128.845 209.348 133.463 202.743 138.08 197.039C142.698 191.335 144.429 178.126 161.167 177.525C177.906 176.925 181.08 192.536 185.12 197.039L185.243 197.176C189.346 201.751 198.56 212.026 214.845 209.648Z" fill="#2D91B7"/>
<path d="M272.563 143.001L297.67 71.55L324.221 1H256.691L254.959 6.40383L251.496 16.6111L247.744 28.9198L242.55 43.6302L237.932 56.8396L234.181 68.5479L229.563 80.2562L225.523 91.364L221.483 102.772L219.174 108.476L218.308 110.277L217.442 112.079C217.442 112.079 216.739 112.379 216.288 112.379C215.95 112.379 215.422 112.079 215.422 112.079L214.268 110.878L212.825 108.476L210.805 102.772L206.476 91.364L202.147 80.2562L197.818 68.5479L193.201 56.8396L188.295 43.6302L181.08 25.017L175.597 11.5074L172.422 6.10362L167.228 3.10149L161.745 1.30021L157.127 3.10149L153.087 6.10362L149.047 11.5074L143.563 25.017L136.06 43.6302L131.154 56.8396L126.248 68.5479L121.919 80.2562L117.879 91.364L114.416 99.77L111.819 106.375L110.376 109.977L109.798 111.478L108.933 112.079H107.778H106.913L106.047 111.478L105.181 110.277L104.027 108.476L99.4092 96.7679L89.3085 68.5479L78.9193 40.0277L65.6441 1.30021H62.1811H43.7113H25.2416H1L20.9127 56.8396L51.5032 143.001M272.563 143.001C272.563 143.001 272.475 143.387 272.166 144.001M272.563 143.001L272.166 144.001M51.5032 143.001C51.5032 143.001 51.5747 143.31 51.7804 143.811C51.7888 143.832 51.7974 143.852 51.8062 143.873M51.5032 143.001L51.8062 143.873M51.8062 143.873C52.6479 145.878 55.5529 150.696 64.2012 151.407C75.1676 152.307 79.2079 143.001 79.2079 143.001C79.2079 143.001 81.8052 134.294 91.6172 134.294C101.429 134.294 103.449 142.4 103.449 142.4C103.449 142.4 106.047 150.206 117.879 151.407C129.711 152.607 136.06 136.396 136.06 136.396C136.06 136.396 142.986 120.485 162.322 120.485C181.657 120.485 187.141 135.195 187.141 135.195C187.141 135.195 193.201 151.106 204.744 151.106C216.288 151.106 219.174 143.901 219.174 143.901C219.174 143.901 222.637 133.994 232.449 134.595C242.261 135.195 243.416 141.8 243.416 141.8C243.416 141.8 248.033 153.508 259.577 151.407C268.234 149.83 271.21 145.89 272.157 144.019C272.16 144.013 272.163 144.007 272.166 144.001M185.12 197.039C181.08 192.536 177.906 176.925 161.167 177.525C144.429 178.125 142.698 191.335 138.08 197.039C133.463 202.743 128.845 209.348 112.396 209.648C95.946 209.948 85.5568 200.341 85.5568 200.341C83.0057 198.34 76.2448 193.376 69.6094 189.534C73.6497 187.432 83.5367 182.328 89.3085 176.324C89.3085 176.324 91.0401 174.523 93.3487 173.923C95.3689 173.923 97.1004 176.324 97.1004 176.324C97.1004 176.324 98.8319 178.426 100.563 180.227C102.295 182.028 107.472 186.531 116.725 186.531C131.154 186.531 140.966 168.819 140.966 168.819C140.966 168.819 147.026 155.309 162.033 155.309C177.04 155.309 180.503 164.916 183.1 169.419C184.832 172.421 193.201 186.531 208.207 186.531C220.04 186.531 220.906 182.629 225.523 177.525C227.046 175.841 227.832 174.523 230.429 174.523C233.026 174.523 234.163 175.649 235.624 177.525C240.53 183.83 246.38 187.772 252.729 189.534C247.02 192.175 241.255 197.839 239.087 200.341C239.087 200.341 231.295 207.246 214.845 209.648C198.56 212.026 189.346 201.751 185.243 197.176M185.12 197.039L185.243 197.176M185.12 197.039C185.161 197.084 185.202 197.13 185.243 197.176" stroke="black"/>
</svg>
