<svg width="574" height="29" viewBox="0 0 574 29" fill="none" xmlns="http://www.w3.org/2000/svg">
<path d="M271.64 28.172C269.24 28.172 267.032 27.608 265.016 26.48C263.024 25.352 261.44 23.792 260.264 21.8C259.088 19.808 258.5 16.564 258.5 14.068C258.5 11.572 259.088 9.328 260.264 7.336C261.44 5.344 263.024 3.796 265.016 2.692C267.032 1.564 269.24 1 271.64 1C274.04 1 276.236 1.564 278.228 2.692C280.22 3.796 281.792 5.344 282.944 7.336C284.12 9.328 284.708 11.572 284.708 14.068C284.708 16.564 284.12 19.808 282.944 21.8C281.792 23.792 280.208 25.352 278.192 26.48C276.2 27.608 274.016 28.172 271.64 28.172ZM271.64 20C273.224 20 274.636 19.508 275.5 18.5C276.364 17.468 277 15.796 277 14.068C277 12.316 276.364 10.508 275.5 9.5C274.636 8.468 273.224 8 271.64 8C270.032 8 268.364 8.468 267.5 9.5C266.636 10.508 266 12.316 266 14.068C266 15.796 266.636 17.468 267.5 18.5C268.364 19.508 270.032 20 271.64 20Z" fill="white"/>
<path d="M1 1H23V7H16V27H8V7H1V1Z" fill="white"/>
<path d="M51 1V27H68.5V22H58V17.5H68.5V12H58V7H68.5V1H51Z" fill="white"/>
<path d="M149 1H155.5V10.5H165V1H172V28H165V16.5H155.5V28H149V1Z" fill="white"/>
<path d="M203 1V27.5H210.5V13.5L220.5 28H226V1H219.5V15.5L210.5 1H203Z" fill="white"/>
<path d="M314.5 1.5V28H332V21.5H322V1.5H314.5Z" fill="white"/>
<path d="M477 1H469V28H477V1Z" fill="white"/>
<path d="M506 1H525V6.5H514V11H525V17H514V21.5H525V28H506V1Z" fill="white"/>
<path d="M374.64 28.172C372.24 28.172 370.032 27.608 368.016 26.48C366.024 25.352 364.44 23.792 363.264 21.8C362.088 19.808 361.5 16.564 361.5 14.068C361.5 11.572 362.088 9.328 363.264 7.336C364.44 5.344 366.024 3.796 368.016 2.692C370.032 1.564 372.24 1 374.64 1C377.04 1 379.236 1.564 381.228 2.692C383.22 3.796 384.792 5.344 385.944 7.336C387.12 9.328 387.708 11.572 387.708 14.068C387.708 16.564 387.12 19.808 385.944 21.8C384.792 23.792 383.208 25.352 381.192 26.48C379.2 27.608 377.016 28.172 374.64 28.172ZM374.64 20.24C376.224 20.24 377.636 19.508 378.5 18.5C379.364 17.468 380 15.796 380 14.068C380 12.316 379.364 10.508 378.5 9.5C377.636 8.468 376.224 8 374.64 8C373.032 8 371.364 8.468 370.5 9.5C369.636 10.508 369 12.316 369 14.068C369 15.796 369.636 17.468 370.5 18.5C371.364 19.508 373.032 20.24 374.64 20.24Z" fill="white"/>
<path d="M563 28C560.583 28 558.63 27.3563 556.903 26.493C555.201 25.605 553.733 24.3223 552.5 22.645L555.978 18.723C557.187 20.4003 558.383 21.5473 559.567 22.164C560.776 22.756 562.071 23.052 563.452 23.052C564.217 23.052 564.895 22.941 565.487 22.719C566.104 22.497 566.585 22.1887 566.93 21.794C567.3 21.3993 567.485 20.943 567.485 20.425C567.485 20.0303 567.399 19.6727 567.226 19.352C567.053 19.0067 566.807 18.7107 566.486 18.464C566.165 18.1927 565.783 17.9583 565.339 17.761C564.895 17.539 564.402 17.354 563.859 17.206C563.316 17.058 562.724 16.9223 562.083 16.799C560.702 16.503 559.493 16.1207 558.457 15.652C557.421 15.1833 556.558 14.616 555.867 13.95C555.176 13.284 554.658 12.5193 554.313 11.656C553.992 10.768 553.832 9.78133 553.832 8.696C553.832 7.16667 554.264 5.83467 555.127 4.7C555.99 3.54067 557.137 2.64034 558.568 1.999C559.999 1.333 561.577 1 563.304 1C565.647 1 567.571 1.39467 569.076 2.184C570.605 2.97334 571.826 4.08334 572.739 5.514L569.187 8.992C568.422 7.93134 567.547 7.12967 566.56 6.587C565.573 6.04433 564.513 5.773 563.378 5.773C562.589 5.773 561.886 5.884 561.269 6.106C560.677 6.30334 560.221 6.61167 559.9 7.031C559.579 7.42567 559.419 7.89433 559.419 8.437C559.419 8.881 559.53 9.27567 559.752 9.621C559.974 9.96634 560.282 10.2747 560.677 10.546C561.096 10.7927 561.602 11.0147 562.194 11.212C562.786 11.4093 563.44 11.5697 564.155 11.693C565.512 11.9643 566.733 12.3343 567.818 12.803C568.903 13.247 569.828 13.7897 570.593 14.431C571.382 15.0723 571.987 15.8123 572.406 16.651C572.825 17.4897 573.035 18.427 573.035 19.463C573.035 21.2143 572.616 22.7067 571.777 23.94C570.938 25.1733 569.779 26.123 568.299 26.789C566.819 27.455 564.973 28 563 28Z" fill="white"/>
<path d="M109.622 28C107.708 28 105.944 27.6754 104.328 27.0263C102.738 26.3523 101.346 25.4161 100.153 24.2177C98.9851 22.9944 98.0781 21.5589 97.4319 19.9112C96.8106 18.2635 96.5 16.4535 96.5 14.4813C96.5 12.5589 96.8355 10.7864 97.5065 9.16366C98.1775 7.51595 99.1218 6.08044 100.34 4.85714C101.557 3.63384 102.974 2.68516 104.589 2.0111C106.229 1.33703 108.006 1 109.92 1C111.162 1 112.38 1.17476 113.573 1.52427C114.791 1.84882 115.897 2.34813 116.891 3.02219C117.91 3.67129 118.779 4.43273 119.5 5.30652L115.996 9.23856C115.126 8.28988 114.182 7.56588 113.163 7.06658C112.144 6.56727 111.051 6.31762 109.882 6.31762C108.814 6.31762 107.807 6.51734 106.863 6.91678C105.944 7.29126 105.136 7.8405 104.44 8.5645C103.744 9.28849 103.197 10.1498 102.8 11.1484C102.402 12.147 102.203 13.258 102.203 14.4813C102.203 15.7295 102.39 16.8655 102.763 17.889C103.16 18.8876 103.719 19.7489 104.44 20.4729C105.161 21.172 106.018 21.7212 107.012 22.1207C108.031 22.4951 109.149 22.6824 110.367 22.6824C111.162 22.6824 111.92 22.57 112.641 22.3453C113.387 22.1207 114.082 21.8086 114.729 21.4091C115.375 21.0097 115.946 20.5478 116.443 20.0236L119.165 24.405C118.593 25.079 117.798 25.6907 116.779 26.2399C115.76 26.7892 114.629 27.2261 113.387 27.5506C112.144 27.8502 110.889 28 109.622 28Z" fill="white"/>
<path d="M431.172 28.172C429.149 28.172 427.053 27.529 425.4 26.863C423.747 26.197 422.428 25.0747 421.219 23.866C420.01 22.6573 419.073 21.239 418.407 19.611C417.766 17.983 417.445 16.2193 417.445 14.32C417.445 12.4207 417.778 10.657 418.444 9.029C419.135 7.401 420.097 5.995 421.33 4.811C422.588 3.60233 424.056 2.665 425.733 1.999C427.41 1.333 429.248 1 431.246 1C432.627 1 433.947 1.185 435.205 1.555C436.463 1.925 437.61 2.43067 438.646 3.072C439.682 3.71333 440.533 4.45333 441.199 5.292L437.758 8.918C436.796 8.00533 435.772 7.30233 434.687 6.809C433.602 6.291 432.43 6.032 431.172 6.032C430.013 6.032 428.94 6.24167 427.953 6.661C426.991 7.05567 426.14 7.63533 425.4 8.4C424.685 9.14 424.117 10.0157 423.698 11.027C423.303 12.0383 423.106 13.136 423.106 14.32C423.106 15.4793 423.316 16.5647 423.735 17.576C424.179 18.5873 424.771 19.4753 425.511 20.24C426.276 20.98 427.164 21.572 428.175 22.016C429.186 22.4353 430.272 22.645 431.431 22.645C432.245 22.645 433.01 22.5217 433.725 22.275C434.465 22.0037 435.106 21.646 435.649 21.202C436.216 20.758 436.66 20.24 436.981 19.648C437.302 19.056 437.462 18.4147 437.462 17.724L430.839 17.872V13.21H442.753C442.802 13.4813 442.839 13.8143 442.864 14.209C442.889 14.6037 442.901 14.986 442.901 15.356C442.926 15.726 442.938 16.0343 442.938 16.281C442.938 17.9583 442.642 19.5 442.05 20.906C441.458 22.2873 440.619 23.4837 439.534 24.495C438.449 25.5063 437.955 26.2957 436.5 26.863C435.045 27.4057 432.849 28.172 431.172 28.172Z" fill="white"/>
<path d="M271.64 28.172C269.24 28.172 267.032 27.608 265.016 26.48C263.024 25.352 261.44 23.792 260.264 21.8C259.088 19.808 258.5 16.564 258.5 14.068C258.5 11.572 259.088 9.328 260.264 7.336C261.44 5.344 263.024 3.796 265.016 2.692C267.032 1.564 269.24 1 271.64 1C274.04 1 276.236 1.564 278.228 2.692C280.22 3.796 281.792 5.344 282.944 7.336C284.12 9.328 284.708 11.572 284.708 14.068C284.708 16.564 284.12 19.808 282.944 21.8C281.792 23.792 280.208 25.352 278.192 26.48C276.2 27.608 274.016 28.172 271.64 28.172ZM271.64 20C273.224 20 274.636 19.508 275.5 18.5C276.364 17.468 277 15.796 277 14.068C277 12.316 276.364 10.508 275.5 9.5C274.636 8.468 273.224 8 271.64 8C270.032 8 268.364 8.468 267.5 9.5C266.636 10.508 266 12.316 266 14.068C266 15.796 266.636 17.468 267.5 18.5C268.364 19.508 270.032 20 271.64 20Z" stroke="black"/>
<path d="M1 1H23V7H16V27H8V7H1V1Z" stroke="black"/>
<path d="M51 1V27H68.5V22H58V17.5H68.5V12H58V7H68.5V1H51Z" stroke="black"/>
<path d="M149 1H155.5V10.5H165V1H172V28H165V16.5H155.5V28H149V1Z" stroke="black"/>
<path d="M203 1V27.5H210.5V13.5L220.5 28H226V1H219.5V15.5L210.5 1H203Z" stroke="black"/>
<path d="M314.5 1.5V28H332V21.5H322V1.5H314.5Z" stroke="black"/>
<path d="M477 1H469V28H477V1Z" stroke="black"/>
<path d="M506 1H525V6.5H514V11H525V17H514V21.5H525V28H506V1Z" stroke="black"/>
<path d="M374.64 28.172C372.24 28.172 370.032 27.608 368.016 26.48C366.024 25.352 364.44 23.792 363.264 21.8C362.088 19.808 361.5 16.564 361.5 14.068C361.5 11.572 362.088 9.328 363.264 7.336C364.44 5.344 366.024 3.796 368.016 2.692C370.032 1.564 372.24 1 374.64 1C377.04 1 379.236 1.564 381.228 2.692C383.22 3.796 384.792 5.344 385.944 7.336C387.12 9.328 387.708 11.572 387.708 14.068C387.708 16.564 387.12 19.808 385.944 21.8C384.792 23.792 383.208 25.352 381.192 26.48C379.2 27.608 377.016 28.172 374.64 28.172ZM374.64 20.24C376.224 20.24 377.636 19.508 378.5 18.5C379.364 17.468 380 15.796 380 14.068C380 12.316 379.364 10.508 378.5 9.5C377.636 8.468 376.224 8 374.64 8C373.032 8 371.364 8.468 370.5 9.5C369.636 10.508 369 12.316 369 14.068C369 15.796 369.636 17.468 370.5 18.5C371.364 19.508 373.032 20.24 374.64 20.24Z" stroke="black"/>
<path d="M563 28C560.583 28 558.63 27.3563 556.903 26.493C555.201 25.605 553.733 24.3223 552.5 22.645L555.978 18.723C557.187 20.4003 558.383 21.5473 559.567 22.164C560.776 22.756 562.071 23.052 563.452 23.052C564.217 23.052 564.895 22.941 565.487 22.719C566.104 22.497 566.585 22.1887 566.93 21.794C567.3 21.3993 567.485 20.943 567.485 20.425C567.485 20.0303 567.399 19.6727 567.226 19.352C567.053 19.0067 566.807 18.7107 566.486 18.464C566.165 18.1927 565.783 17.9583 565.339 17.761C564.895 17.539 564.402 17.354 563.859 17.206C563.316 17.058 562.724 16.9223 562.083 16.799C560.702 16.503 559.493 16.1207 558.457 15.652C557.421 15.1833 556.558 14.616 555.867 13.95C555.176 13.284 554.658 12.5193 554.313 11.656C553.992 10.768 553.832 9.78133 553.832 8.696C553.832 7.16667 554.264 5.83467 555.127 4.7C555.99 3.54067 557.137 2.64034 558.568 1.999C559.999 1.333 561.577 1 563.304 1C565.647 1 567.571 1.39467 569.076 2.184C570.605 2.97334 571.826 4.08334 572.739 5.514L569.187 8.992C568.422 7.93134 567.547 7.12967 566.56 6.587C565.573 6.04433 564.513 5.773 563.378 5.773C562.589 5.773 561.886 5.884 561.269 6.106C560.677 6.30334 560.221 6.61167 559.9 7.031C559.579 7.42567 559.419 7.89433 559.419 8.437C559.419 8.881 559.53 9.27567 559.752 9.621C559.974 9.96634 560.282 10.2747 560.677 10.546C561.096 10.7927 561.602 11.0147 562.194 11.212C562.786 11.4093 563.44 11.5697 564.155 11.693C565.512 11.9643 566.733 12.3343 567.818 12.803C568.903 13.247 569.828 13.7897 570.593 14.431C571.382 15.0723 571.987 15.8123 572.406 16.651C572.825 17.4897 573.035 18.427 573.035 19.463C573.035 21.2143 572.616 22.7067 571.777 23.94C570.938 25.1733 569.779 26.123 568.299 26.789C566.819 27.455 564.973 28 563 28Z" stroke="black"/>
<path d="M109.622 28C107.708 28 105.944 27.6754 104.328 27.0263C102.738 26.3523 101.346 25.4161 100.153 24.2177C98.9851 22.9944 98.0781 21.5589 97.4319 19.9112C96.8106 18.2635 96.5 16.4535 96.5 14.4813C96.5 12.5589 96.8355 10.7864 97.5065 9.16366C98.1775 7.51595 99.1218 6.08044 100.34 4.85714C101.557 3.63384 102.974 2.68516 104.589 2.0111C106.229 1.33703 108.006 1 109.92 1C111.162 1 112.38 1.17476 113.573 1.52427C114.791 1.84882 115.897 2.34813 116.891 3.02219C117.91 3.67129 118.779 4.43273 119.5 5.30652L115.996 9.23856C115.126 8.28988 114.182 7.56588 113.163 7.06658C112.144 6.56727 111.051 6.31762 109.882 6.31762C108.814 6.31762 107.807 6.51734 106.863 6.91678C105.944 7.29126 105.136 7.8405 104.44 8.5645C103.744 9.28849 103.197 10.1498 102.8 11.1484C102.402 12.147 102.203 13.258 102.203 14.4813C102.203 15.7295 102.39 16.8655 102.763 17.889C103.16 18.8876 103.719 19.7489 104.44 20.4729C105.161 21.172 106.018 21.7212 107.012 22.1207C108.031 22.4951 109.149 22.6824 110.367 22.6824C111.162 22.6824 111.92 22.57 112.641 22.3453C113.387 22.1207 114.082 21.8086 114.729 21.4091C115.375 21.0097 115.946 20.5478 116.443 20.0236L119.165 24.405C118.593 25.079 117.798 25.6907 116.779 26.2399C115.76 26.7892 114.629 27.2261 113.387 27.5506C112.144 27.8502 110.889 28 109.622 28Z" stroke="black"/>
<path d="M431.172 28.172C429.149 28.172 427.053 27.529 425.4 26.863C423.747 26.197 422.428 25.0747 421.219 23.866C420.01 22.6573 419.073 21.239 418.407 19.611C417.766 17.983 417.445 16.2193 417.445 14.32C417.445 12.4207 417.778 10.657 418.444 9.029C419.135 7.401 420.097 5.995 421.33 4.811C422.588 3.60233 424.056 2.665 425.733 1.999C427.41 1.333 429.248 1 431.246 1C432.627 1 433.947 1.185 435.205 1.555C436.463 1.925 437.61 2.43067 438.646 3.072C439.682 3.71333 440.533 4.45333 441.199 5.292L437.758 8.918C436.796 8.00533 435.772 7.30233 434.687 6.809C433.602 6.291 432.43 6.032 431.172 6.032C430.013 6.032 428.94 6.24167 427.953 6.661C426.991 7.05567 426.14 7.63533 425.4 8.4C424.685 9.14 424.117 10.0157 423.698 11.027C423.303 12.0383 423.106 13.136 423.106 14.32C423.106 15.4793 423.316 16.5647 423.735 17.576C424.179 18.5873 424.771 19.4753 425.511 20.24C426.276 20.98 427.164 21.572 428.175 22.016C429.186 22.4353 430.272 22.645 431.431 22.645C432.245 22.645 433.01 22.5217 433.725 22.275C434.465 22.0037 435.106 21.646 435.649 21.202C436.216 20.758 436.66 20.24 436.981 19.648C437.302 19.056 437.462 18.4147 437.462 17.724L430.839 17.872V13.21H442.753C442.802 13.4813 442.839 13.8143 442.864 14.209C442.889 14.6037 442.901 14.986 442.901 15.356C442.926 15.726 442.938 16.0343 442.938 16.281C442.938 17.9583 442.642 19.5 442.05 20.906C441.458 22.2873 440.619 23.4837 439.534 24.495C438.449 25.5063 437.955 26.2957 436.5 26.863C435.045 27.4057 432.849 28.172 431.172 28.172Z" stroke="black"/>
</svg>
