<svg width="545" height="93" viewBox="0 0 545 93" fill="none" xmlns="http://www.w3.org/2000/svg">
<path d="M23.5 3H1L33.5 92H54.5L70.5 41L89.5 92H110.5L143 3H120L100 59L80.5 3H61.5L43.5 59L23.5 3Z" fill="white"/>
<path d="M355 0.5H329.5L362.5 92H383L421 0.5H395.5L374.5 56.5L355 0.5Z" fill="white"/>
<path d="M544.5 92H475V0.5H544.5V20.5H497.5V38H544.5V56.5H497.5V73H544.5V92Z" fill="white"/>
<path fill-rule="evenodd" clip-rule="evenodd" d="M189.5 92H211L218.5 73H256L264 92H291L249.5 0.5H225.5L189.5 92ZM249.5 54H225.5L237 24.5L249.5 54Z" fill="white"/>
<path d="M23.5 3H1L33.5 92H54.5L70.5 41L89.5 92H110.5L143 3H120L100 59L80.5 3H61.5L43.5 59L23.5 3Z" stroke="black"/>
<path d="M355 0.5H329.5L362.5 92H383L421 0.5H395.5L374.5 56.5L355 0.5Z" stroke="black"/>
<path d="M544.5 92H475V0.5H544.5V20.5H497.5V38H544.5V56.5H497.5V73H544.5V92Z" stroke="black"/>
<path fill-rule="evenodd" clip-rule="evenodd" d="M189.5 92H211L218.5 73H256L264 92H291L249.5 0.5H225.5L189.5 92ZM249.5 54H225.5L237 24.5L249.5 54Z" stroke="black"/>
</svg>
